<?xml version="1.0" encoding="utf-8"?>
<!-- Generator: Adobe Illustrator 21.1.0, SVG Export Plug-In . SVG Version: 6.00 Build 0)  -->
<svg version="1.1" id="Слой_1" xmlns="http://www.w3.org/2000/svg" xmlns:xlink="http://www.w3.org/1999/xlink" x="0px" y="0px"
	 viewBox="0 0 1325.3 439.1" style="enable-background:new 0 0 1325.3 439.1;" xml:space="preserve">
<style type="text/css">
	.st0{fill:none;}
	.st1{fill:#FFFFFF;}
	.st2{fill:#1589C6;}
</style>
<path class="st0" d="M94.8,375.1c-21.3-28.4-33.3-65.9-34.5-106.9c-8.3,16.7-13.7,32.9-16.2,48.5c7.2,11,15.3,21.7,24.3,31.9
	C76.6,358.1,85.5,367,94.8,375.1L94.8,375.1z"/>
<path class="st0" d="M152.3,419.3c-12.4-4.8-23.8-11.4-33.9-19.6c-19-12.9-37.2-28.9-53.8-47.8c-7.9-9-15-18.3-21.5-27.7
	c-0.2,1.9-0.3,3.8-0.4,5.7c-1,19.8,3.3,37.5,12.7,52.5c18.2,29.2,54.4,45.5,101.7,45.8c5.4,0,10.9-0.1,16.5-0.5
	c-6.2-2.2-12.4-4.6-18.6-7.4C154.1,420,153.2,419.6,152.3,419.3L152.3,419.3z"/>
<path class="st1" d="M60.1,133.2L60,148.7l-44.3-0.3l0.5-70.5L60,78.2l-0.1,15.5l-27.7-0.2l-0.1,11.7l25.2,0.2l-0.1,15.3L32,120.5
	L32,133L60.1,133.2L60.1,133.2z"/>
<path class="st1" d="M233.6,36.4c0.1-20.7,16.6-36.5,36.9-36.4c20.2,0.1,36.5,16.1,36.4,36.9c-0.1,20.7-16.6,36.5-36.9,36.4
	C249.7,73.1,233.4,57.1,233.6,36.4L233.6,36.4z M290.7,36.8c0.1-12.6-8.9-21-20.4-21.1c-11.5-0.1-20.6,8.2-20.7,20.8
	c-0.1,12.6,8.9,21,20.4,21.1C281.5,57.7,290.6,49.4,290.7,36.8L290.7,36.8z"/>
<path class="st0" d="M339.2,96.1c-24.9-0.2-51.4,4-78.9,12.5c-9,2.8-18,6-26.9,9.6c17,12.2,33.3,26.8,48.2,43.9
	c45.3,51.7,67.4,113.2,64.3,165.3c8.7-13.8,16.2-28.8,22.3-44.6c9.7-25.2,15.3-51.1,16.5-77c1.3-24.9-1.5-48.8-8.2-70.9
	c-4.1-13.7-9.6-26.2-16.3-37.4C353.6,96.6,346.5,96.2,339.2,96.1L339.2,96.1L339.2,96.1z"/>
<path class="st0" d="M83.5,173.2c-8.4,21.8-13.7,44-15.8,66.4c23.8-36.1,59.6-71,104.6-99.1c15.8-9.8,31.8-18.3,47.9-25.4
	c-7-4.5-14.1-8.6-21.3-12.3c-18.6-9.5-37.6-16-56.1-19.4C117.3,107.4,97,138.1,83.5,173.2L83.5,173.2z"/>
<path class="st0" d="M300.4,388.4c6.5-3.6,13-7.3,19.4-11.3c4-2.5,8-5.1,11.9-7.7c2.5-6.1,4.5-12.5,6.1-19.1
	C326.4,364.8,313.8,377.6,300.4,388.4L300.4,388.4z"/>
<path class="st0" d="M207.4,431.2c7.7,1.2,15.4,1.9,22.9,1.9c29.3,0.2,55-8.7,74.5-25.7c8-7,14.6-15,19.9-24
	c-0.2,0.1-0.4,0.3-0.6,0.4C285.4,407.9,245.2,423.7,207.4,431.2L207.4,431.2z"/>
<path class="st0" d="M277.8,165.3c-15-17.1-31.9-32.3-49.9-44.9c-17.5,7.4-34.7,16.4-51.5,26.8c-26.4,16.4-50,35.5-70.1,56.7
	c-16,16.8-29.3,34.4-39.6,52.3c-0.6,22.7,2.3,44.5,8.4,64.8c13.5,45,41.8,77.7,79.5,92.2c13.4,5.2,27.7,7.8,42.4,7.9
	c16.6,0.1,33.6-3.1,50.5-9.4c16.7-6.3,32.9-15.6,48.1-27.7c16.9-13.4,31.9-29.6,44.7-48C346.5,283.6,324.9,219.1,277.8,165.3
	L277.8,165.3z"/>
<g>
	<path class="st2" d="M368.4,98.6c-1.7-3-3.4-5.9-5.2-8.8c-11-17.1-24.9-31.4-41.5-42c-0.5,2.2-1.1,4.4-1.9,6.5
		c13.5,8.9,25.4,20.6,35.1,34.6c1.9,2.7,3.7,5.6,5.5,8.5c6.7,11.2,12.2,23.8,16.3,37.4c6.7,22.1,9.4,45.9,8.2,70.9
		c-1.3,25.9-6.9,51.8-16.5,77c-6.1,15.9-13.6,30.8-22.3,44.6c-0.3,4.7-0.8,9.2-1.4,13.7c11.8-16.7,21.9-35.5,29.7-56
		C400.1,217.8,395.9,148.3,368.4,98.6L368.4,98.6z"/>
	<path class="st2" d="M295.5,384.1c-15.2,12-31.4,21.4-48.1,27.7c-16.8,6.4-33.8,9.5-50.5,9.4c-14.7-0.1-28.9-2.8-42.4-7.9
		c-37.7-14.5-66-47.3-79.5-92.2c-6.1-20.3-8.9-42-8.4-64.8c-2.2,3.8-4.2,7.6-6.2,11.4c-0.1,0.2-0.2,0.3-0.3,0.5
		c1.2,41,13.2,78.5,34.5,106.9c6.9,9.2,14.8,17.5,23.6,24.6c10.1,8.2,21.4,14.8,33.9,19.6c0.9,0.3,1.8,0.7,2.7,1
		c9.3,3.3,18.8,5.5,28.4,6.6c1-0.1,2-0.2,3-0.3c1,0.3,2.1,0.6,3.1,0.9c2.5,0.2,5,0.3,7.5,0.3c35.6,0.2,72-13.9,103.5-39.2
		c13.4-10.8,26-23.6,37.3-38.2c1.1-4.6,1.9-9.4,2.5-14.2C327.4,354.5,312.4,370.7,295.5,384.1L295.5,384.1z"/>
	<path class="st2" d="M156.2,71.8c15.2-12,31.4-21.4,48.1-27.7c4.3-1.6,8.7-3.1,13-4.3c-0.1-1.2-0.1-2.5-0.1-3.7c0-1,0-2,0.1-3
		c-27.6,7.4-54.5,22.8-78,44.7c2.7,0.4,5.3,0.9,8,1.4C150.2,76.7,153.2,74.2,156.2,71.8L156.2,71.8z"/>
	<path class="st2" d="M83.5,173.2c13.5-35.1,33.8-65.8,59.2-89.7c-2.7-0.5-5.3-0.9-8-1.2C111,105.6,91,135.7,77.4,170.9
		c-10.3,26.9-15.9,54.2-17,80.4c2.3-3.9,4.7-7.8,7.3-11.7C69.8,217.3,75.1,195,83.5,173.2L83.5,173.2z"/>
</g>
<g>
	<path class="st1" d="M220.2,115.2c1.8-0.8,3.6-1.6,5.5-2.3c-25.5-16.9-52.3-28.3-78.3-33.5c-2.7-0.5-5.4-1-8-1.4
		c-7.9-1.2-15.7-1.9-23.3-1.9c-12.9-0.1-25.4,1.5-37,4.9c1,1.4,1.9,2.9,2.8,4.4c10.7-2.9,22.1-4.4,34.2-4.3h0
		c6.2,0,12.4,0.5,18.8,1.3c2.7,0.3,5.3,0.8,8,1.2c18.5,3.3,37.5,9.9,56.1,19.4C206.1,106.6,213.2,110.7,220.2,115.2L220.2,115.2z"/>
	<path class="st1" d="M281.6,162.1c-14.9-17-31.2-31.7-48.2-43.9c-1.8,0.7-3.6,1.5-5.4,2.3c18,12.6,34.9,27.7,49.9,44.9
		c47,53.7,68.6,118.2,62.3,170.7c-0.6,4.8-1.4,9.6-2.5,14.2c-1.5,6.6-3.5,13-6.1,19.1c-2,4.9-4.4,9.6-7,14c-5.3,8.9-12,17-19.9,24
		c-19.4,17-45.2,25.9-74.5,25.7c-7.5-0.1-15.1-0.7-22.9-1.9c-4.7,0.9-9.3,1.7-13.9,2.4c12.5,2.9,24.8,4.4,36.7,4.5
		c29.6,0.2,56.7-8.5,77.8-26.9c10.7-9.4,19.1-20.6,25.3-33.3c2.1-4.3,4-8.8,5.5-13.4c2.6-7.4,4.4-15.3,5.7-23.4
		c0.7-4.5,1.2-9.1,1.4-13.7C349,275.3,326.8,213.8,281.6,162.1L281.6,162.1z"/>
	<path class="st1" d="M94.8,375.1c-9.3-8.2-18.1-17-26.4-26.5c-9-10.2-17.1-20.9-24.3-31.9c-2.1-3.3-4.2-6.6-6.2-9.9
		c-17.6-29.7-28.7-61.3-32-92.2c-2.2-20.8-0.8-40,4.1-57.2c-1.5-0.8-2.9-1.7-4.3-2.7C-7.9,200.8,3,259.9,36.5,314
		c2.1,3.4,4.3,6.8,6.6,10.2c6.5,9.5,13.6,18.8,21.5,27.7c16.5,18.9,34.8,34.9,53.8,47.8C109.6,392.6,101.7,384.3,94.8,375.1
		L94.8,375.1z"/>
</g>
<g>
	<path class="st1" d="M430.1,128.2c2.5-1.2,5.2-2.3,8-3.1c-17.7-19.5-43.8-31.3-74.9-35.3c1.8,2.9,3.6,5.8,5.2,8.8
		C394.2,102.9,415.3,113.1,430.1,128.2L430.1,128.2z"/>
	<path class="st1" d="M300.4,388.4c-31.5,25.3-67.9,39.5-103.5,39.2c-2.5,0-5-0.1-7.5-0.3c-2-0.1-4.1-0.3-6.1-0.5
		c-3.3,0.4-6.5,0.6-9.8,0.9c-5.6,0.4-11.1,0.6-16.5,0.5c-47.4-0.3-83.5-16.6-101.7-45.8c-9.4-15-13.6-32.7-12.7-52.5
		c0.1-1.9,0.2-3.8,0.4-5.7c-2.3-3.4-4.5-6.8-6.6-10.2c-4.5,26.7-0.9,51.7,12.1,72.6c20.4,32.8,60.2,49.3,108.4,49.6
		c11.7,0.1,23.9-0.8,36.5-2.6c4.6-0.7,9.2-1.5,13.9-2.4c37.8-7.5,78-23.2,116.6-47.3c0.2-0.1,0.4-0.3,0.6-0.4c2.7-4.5,5-9.2,7-14
		c-3.9,2.6-7.8,5.2-11.9,7.7C313.4,381.1,306.9,384.9,300.4,388.4L300.4,388.4z"/>
	<path class="st1" d="M452.7,228.6c-1.8,0-3.6-0.1-5.4-0.3c-2.9,9.3-6.8,18.8-11.6,28.4c-11,21.9-26.4,43.3-45.8,63.7
		c-15.2,16-32.3,30.7-51.1,44.1c-1.6,4.6-3.4,9.1-5.5,13.4c63.2-41.9,106.9-97.5,122.3-149.3C454.6,228.6,453.7,228.6,452.7,228.6
		L452.7,228.6z"/>
	<path class="st1" d="M60.3,268.2c0.1-0.2,0.2-0.3,0.3-0.5c1.9-3.8,4-7.6,6.2-11.4c10.3-17.9,23.6-35.5,39.6-52.3
		c20.2-21.2,43.8-40.3,70.1-56.7c16.8-10.5,34-19.4,51.5-26.8c1.8-0.8,3.6-1.5,5.4-2.3c8.9-3.6,17.9-6.8,26.9-9.6
		c27.5-8.5,54-12.7,78.9-12.5h0c7.3,0.1,14.4,0.5,21.1,1.3c-1.7-2.9-3.6-5.8-5.5-8.5c-5.1-0.4-10.3-0.7-15.6-0.7
		c-34.9-0.2-74.1,8-113.6,24.6c-1.8,0.8-3.6,1.6-5.5,2.3c-16,7.1-32.1,15.5-47.9,25.4c-45,28-80.8,63-104.6,99.1
		c-2.6,3.9-5,7.8-7.3,11.7c-10.9,18.6-18.5,37.4-22.5,55.5c2,3.3,4,6.6,6.2,9.9C46.5,301.1,51.9,284.9,60.3,268.2L60.3,268.2z"/>
</g>
<path class="st1" d="M425.6,194.9l13.9-8c2.5,5.9,6.8,9.8,14.7,9.9c7.6,0.1,9.6-3,9.6-5.7c0-4.3-4-6.1-14.5-9.1
	c-10.4-3-20.7-8.1-20.6-21.6c0.1-13.6,11.6-21.4,23.8-21.3c11.6,0.1,20.6,5.7,25.7,16.1l-13.6,7.9c-2.4-5.1-5.7-8.2-12.1-8.2
	c-5,0-7.6,2.5-7.6,5.3c0,3.2,1.7,5.4,12.6,8.8c10.7,3.3,22.6,7.1,22.5,22c-0.1,13.6-11,21.6-26.3,21.5
	C438.9,212.5,429.4,205.3,425.6,194.9L425.6,194.9z"/>
<path class="st2" d="M286.1,360.3c-11.9,5.5-13.7-2.8-11.9-12.9c2-11,6.7-21.1,7.2-32.4c0.4-8.1-1.5-18.4-9.4-22.7
	c-9-4.9-20.8-3.1-29.1-9.6c-11.5-9.1-15.2-30.5-9.2-43.2c10-21.1,40.1-17.8,58.5-9.7c-18.5-26-47.8-43.7-81.4-46.5
	c-2,6.3-8.8,12.7-13.9,13.6c-8,1.4-5.3-7.6-4.8-13.6c-8,0.7-15.7,2.1-23.1,4.4c-5,2.7-11.4,6.1-12.5,7.4c-7.4,7.8,5.1,5.6,9.4,3.3
	c3.6-1.9,10.3-6.9,14.2-2.6c3.3,3.7-0.9,10.8-4.1,13.3c-6.2,4.9-15.8,2-22.6,5.7c-5.7,3.1-10.4,7.9-13.9,13.4
	c-3,4.8-4.3,11.8-8.5,15.6c-5.1,4.5-6.4-1.7-10.9-3.8c-6.4-3.1-15.2,14.4-11.1,16.4c3.9,1.9,5.3-5.5,8-3.4c2.6,2.1-4.8,8.5-0.5,10.8
	c3.9,2.1,3.8,9-0.3,10.7c-6.4,2.8-10.7-7.6-12.1-12c-0.8-2.6-1.4-5.1-1.6-6.8c-0.6-4.7-0.2-9.4,0.7-14.1
	c-8.5,15.6-13.3,33.6-13.5,52.6c-0.4,61.9,49.2,112.4,110.8,112.8c44.4,0.3,83-25.5,101.1-63.1C296.7,351.3,291,358.1,286.1,360.3
	L286.1,360.3z M188.5,334.3c-7.7,14.9-31.3,21.8-26.9,42c0.7,3.1,5.5,14.3,1.8,16.8c-0.8,0.5-2.1,0.7-3.9,0.2
	c-5.1-1.4-9.8-9.4-12.5-13.7c-7.4-11.6-5.4-26.2-11.8-38.1c-6-11.3-16.7-20.8-17.6-34.2c-0.4-5.4,1.7-10.5,1.7-15.9
	c0-3.7-3-7.8-1.9-11.5c1.5-4.8,7.8-4.3,11.8-4.6c13.9-0.9,24.5,8.9,35.1,16.4c7.6,5.4,17.7,7,24.9,13.1
	C198.8,313,193.3,325.2,188.5,334.3L188.5,334.3z"/>
<g>
	<path class="st1" d="M546.2,84.9l0.5-68.4L615,17l0,7.1l-59.8-0.4L555,46.5l57,0.4l0,7.1l-57-0.4l-0.2,24.2l59.8,0.4l0,7.1
		L546.2,84.9L546.2,84.9z"/>
	<path class="st1" d="M694.9,70.2l-53.5-0.4l-9,15.6l-9.9-0.1L662,17.3l12.3,0.1L712.7,86l-9-0.1L694.9,70.2L694.9,70.2z
		 M690.9,63.1L668.5,23l-23,39.8L690.9,63.1L690.9,63.1z"/>
	<path class="st1" d="M805.7,86.7l-8.5-0.1l0.1-12.8c0-2.1,0-3.9-0.1-5.4c-0.1-1.5-0.3-2.8-0.7-3.9c-0.4-1.1-1.1-1.9-2-2.6
		c-0.9-0.7-2.2-1.2-3.9-1.5c-1.7-0.4-3.8-0.6-6.4-0.8c-2.6-0.2-5.8-0.2-9.6-0.3l-38.4-0.3l-0.2,27.1l-8.5-0.1l0.5-68.4l48.4,0.3
		c5.2,0,9.6,0.3,13.2,0.7c3.6,0.4,6.5,1,8.8,1.7c2.3,0.8,4.1,1.7,5.4,2.8c1.2,1.1,2.2,2.4,2.7,3.9c0.5,1.5,0.9,3.1,1,5
		c0.1,1.8,0.1,3.9,0.1,6.1c0,2.8-0.2,5.3-0.7,7.5c-0.4,2.1-1.1,4-2,5.5c-1,1.5-2.2,2.7-3.8,3.6c-1.6,0.9-3.6,1.5-5.9,1.9
		c2.4,0.4,4.3,1,5.7,1.9c1.4,0.9,2.5,2.1,3.3,3.5c0.8,1.4,1.3,3.1,1.5,5.1c0.2,2,0.4,4.2,0.3,6.7L805.7,86.7L805.7,86.7z M736.1,52
		l39.8,0.3c3.8,0,7,0,9.6-0.1c2.6-0.1,4.8-0.3,6.4-0.7c1.7-0.3,3-0.8,3.9-1.5c0.9-0.6,1.6-1.5,2-2.6c0.4-1.1,0.7-2.3,0.8-3.8
		c0.1-1.5,0.1-3.3,0.1-5.4c0-1.9,0-3.6-0.1-5c-0.1-1.4-0.3-2.6-0.7-3.5c-0.4-1-1.1-1.7-2-2.3c-0.9-0.6-2.2-1-3.9-1.3
		c-1.7-0.3-3.8-0.5-6.4-0.6c-2.6-0.1-5.8-0.2-9.6-0.2l-39.8-0.3L736.1,52L736.1,52z"/>
	<path class="st1" d="M898.2,18.9l0,7.1l-34.2-0.2L863.5,87L855,87l0.4-61.3l-34.2-0.2l0-7.1L898.2,18.9L898.2,18.9z"/>
	<path class="st1" d="M985.9,19.5l8.5,0.1L994,87.9l-8.5-0.1l0.2-31.3L923,56.1l-0.2,31.3l-8.5-0.1l0.5-68.4l8.5,0.1L923,49
		l62.7,0.4L985.9,19.5L985.9,19.5z"/>
	<g>
		<path class="st1" d="M602.8,139c5.2,0,9.6,0.4,13.2,1c3.6,0.7,6.5,1.6,8.8,3c2.3,1.3,4.1,2.9,5.3,4.9c1.2,2,2.1,4.3,2.7,6.9
			c0.6,2.6,0.9,5.6,1,8.9c0.1,3.3,0.1,7,0.1,11.1c0,4-0.1,7.7-0.2,11c-0.1,3.3-0.5,6.3-1.1,8.9c-0.6,2.6-1.5,4.9-2.8,6.9
			c-1.3,2-3.1,3.6-5.4,4.8c-2.3,1.3-5.3,2.2-8.8,2.8c-3.6,0.6-8,0.9-13.2,0.9l-25.7-0.2c-5.2,0-9.6-0.4-13.2-1.1
			c-3.6-0.7-6.5-1.6-8.8-2.9c-2.3-1.3-4.1-2.9-5.3-4.9c-1.2-2-2.2-4.3-2.7-6.9c-0.6-2.6-0.9-5.6-1-8.9c-0.1-3.3-0.1-7-0.1-11
			c0-4,0.1-7.7,0.2-11c0.1-3.3,0.5-6.3,1.1-8.9c0.6-2.6,1.5-4.9,2.8-6.9c1.3-2,3.1-3.6,5.4-4.8c2.3-1.3,5.3-2.2,8.9-2.8
			c3.6-0.6,8-0.9,13.2-0.9L602.8,139L602.8,139z M602.4,203.1c3.8,0,6.9-0.1,9.5-0.3c2.6-0.2,4.8-0.6,6.4-1.3c1.7-0.7,3-1.6,3.9-2.9
			c0.9-1.3,1.6-3,2-5.1c0.4-2.1,0.7-4.7,0.8-7.8c0.1-3.1,0.2-6.8,0.2-11c0-4.3,0-7.9,0-11c0-3.1-0.3-5.7-0.7-7.8
			c-0.4-2.1-1.1-3.8-2-5.1c-0.9-1.3-2.2-2.3-3.9-3c-1.7-0.7-3.8-1.2-6.4-1.4c-2.6-0.2-5.8-0.4-9.6-0.4l-25.7-0.2
			c-3.8,0-7,0.1-9.6,0.3c-2.6,0.2-4.7,0.6-6.4,1.3c-1.7,0.7-3,1.6-3.9,2.9c-0.9,1.3-1.6,2.9-2,5.1c-0.4,2.1-0.7,4.7-0.8,7.8
			c-0.1,3.1-0.1,6.7-0.2,11c0,4.3,0,7.9,0,11c0.1,3.1,0.3,5.7,0.7,7.8c0.4,2.1,1.1,3.8,2,5.1c0.9,1.3,2.2,2.3,3.9,3
			c1.7,0.7,3.8,1.2,6.4,1.4c2.6,0.2,5.8,0.4,9.6,0.4L602.4,203.1L602.4,203.1z"/>
		<path class="st1" d="M650.2,209.1l0.5-68.4l57,0.4c4.3,0,7.7,0.4,10.3,1.1c2.6,0.7,4.6,1.8,6,3.1c1.4,1.4,2.3,3.1,2.8,5.1
			c0.5,2,0.7,4.4,0.7,6.9c0,1.9-0.2,3.6-0.5,5c-0.3,1.5-0.8,2.7-1.3,3.8c-0.5,1.1-1.2,2-1.8,2.7c-0.7,0.7-1.4,1.3-2.1,1.8
			c-1.7,1.1-3.6,1.7-5.7,1.9c2.7,0.2,5.1,0.8,7.1,2c0.9,0.5,1.8,1.1,2.6,1.9c0.8,0.8,1.6,1.7,2.2,2.8c0.7,1.1,1.2,2.4,1.6,3.9
			c0.4,1.5,0.6,3.2,0.6,5.2c0,2.4-0.1,4.6-0.4,6.5c-0.2,2-0.7,3.7-1.4,5.3c-0.7,1.6-1.7,2.9-3,4.1c-1.3,1.2-3,2.2-5.1,2.9
			c-2.1,0.8-4.7,1.3-7.8,1.7c-3.1,0.4-6.8,0.5-11,0.5L650.2,209.1L650.2,209.1z M698.8,169.5c2.9,0,5.4,0,7.5-0.1
			c2.1-0.1,3.9-0.3,5.4-0.6c1.5-0.3,2.7-0.8,3.6-1.3c0.9-0.6,1.7-1.3,2.2-2.2c0.5-0.9,0.9-2,1.1-3.3c0.2-1.3,0.3-2.8,0.3-4.6
			c0-1.9-0.2-3.4-0.6-4.6c-0.4-1.2-1.1-2.1-2.2-2.7c-1.1-0.7-2.5-1.1-4.3-1.3c-1.8-0.2-4.2-0.4-7-0.4l-45.6-0.3l-0.1,21.4
			L698.8,169.5L698.8,169.5z M698.6,202.3c3.3,0,6.2,0,8.6-0.1c2.4-0.1,4.5-0.3,6.2-0.6c1.7-0.3,3.1-0.8,4.1-1.4
			c1.1-0.6,1.9-1.5,2.4-2.5c0.6-1,1-2.3,1.2-3.8c0.2-1.5,0.3-3.3,0.4-5.5c0-1.7-0.1-3.1-0.3-4.3c-0.2-1.2-0.6-2.3-1.2-3.1
			c-0.6-0.8-1.4-1.5-2.4-2.1c-1-0.5-2.4-0.9-4.1-1.3c-1.7-0.3-3.8-0.5-6.2-0.6c-2.4-0.1-5.3-0.2-8.6-0.2l-39.8-0.3l-0.2,25.6
			L698.6,202.3L698.6,202.3z"/>
		<path class="st1" d="M789.8,171.6c4.7,0,8.7,0.3,12.1,0.7c3.3,0.4,6.2,1,8.5,1.8c2.3,0.8,4.1,1.7,5.5,2.9c1.4,1.1,2.4,2.4,3.1,3.9
			c0.7,1.5,1.2,3.1,1.4,4.9c0.2,1.8,0.3,3.7,0.3,5.8c0,2.1-0.2,4-0.6,5.8c-0.4,1.8-1.1,3.5-2,5c-1,1.5-2.3,2.8-3.9,4
			c-1.6,1.2-3.7,2.1-6.2,3c-2.5,0.8-5.6,1.4-9.1,1.8c-3.5,0.4-7.7,0.6-12.4,0.6l-11.4-0.1c-4.3,0-8-0.2-11.2-0.6
			c-3.2-0.3-6-0.9-8.3-1.6c-2.3-0.7-4.2-1.5-5.7-2.6c-1.5-1-2.7-2.2-3.6-3.6c-0.9-1.4-1.5-3-1.9-4.7c-0.3-1.8-0.5-3.7-0.5-5.9
			l8.5,0.1c0,2.7,0.3,4.8,1.1,6.4c0.8,1.5,2,2.7,3.8,3.5c1.8,0.8,4.1,1.3,7,1.5c2.9,0.2,6.5,0.3,10.7,0.4l11.4,0.1
			c5,0,9.1-0.2,12.4-0.6c3.3-0.5,5.9-1.2,7.9-2.2c2-1,3.4-2.4,4.2-4.1c0.8-1.7,1.2-3.7,1.2-6.2c0-2.4-0.2-4.4-0.8-6.1
			c-0.5-1.6-1.6-2.9-3.2-3.9c-1.6-1-3.9-1.6-6.8-2.1c-2.9-0.4-6.8-0.7-11.5-0.7l-11.8-0.1c-5.2,0-9.7-0.3-13.4-0.7
			c-3.7-0.4-6.8-1-9.4-1.7c-2.5-0.7-4.5-1.7-6-2.8c-1.5-1.1-2.6-2.3-3.4-3.7c-0.8-1.4-1.3-3-1.5-4.7c-0.2-1.7-0.3-3.6-0.3-5.6
			c0-2.1,0.2-4,0.6-5.8c0.4-1.8,1.1-3.4,2.1-4.8c1-1.4,2.4-2.7,4.2-3.8c1.8-1.1,4-2,6.8-2.8c2.8-0.7,6.1-1.3,9.9-1.6
			c3.9-0.4,8.4-0.5,13.6-0.5l8.5,0.1c4.3,0,8,0.2,11.2,0.5c3.2,0.3,5.9,0.8,8.3,1.5c2.3,0.7,4.2,1.5,5.7,2.5c1.5,1,2.7,2.2,3.6,3.6
			c0.9,1.4,1.5,3,1.9,4.7c0.3,1.8,0.5,3.7,0.5,5.8l-8.5-0.1c0-2.7-0.3-4.8-1.1-6.3c-0.8-1.5-2-2.7-3.8-3.4c-1.8-0.8-4.1-1.3-7-1.5
			c-2.9-0.2-6.5-0.3-10.8-0.3l-8.5-0.1c-5.7,0-10.4,0.1-14.1,0.5c-3.7,0.4-6.6,1-8.7,2c-2.1,0.9-3.6,2.2-4.5,3.8
			c-0.9,1.6-1.3,3.6-1.3,6c0,1.5,0.1,2.8,0.3,4c0.2,1.2,0.6,2.2,1.2,3.1c0.6,0.9,1.5,1.6,2.7,2.2c1.2,0.6,2.7,1.1,4.6,1.5
			c1.9,0.4,4.2,0.7,7,0.9c2.7,0.2,6,0.3,9.8,0.3L789.8,171.6L789.8,171.6z"/>
		<path class="st1" d="M837,210.3l0.5-68.4l68.4,0.5l0,7.1l-59.8-0.4l-0.2,22.8l57,0.4l0,7.1l-57-0.4l-0.2,24.2l59.8,0.4l0,7.1
			L837,210.3L837,210.3z"/>
		<path class="st1" d="M997.5,211.4l-8.6-0.1l0.1-12.8c0-2.1,0-3.9-0.1-5.4c-0.1-1.5-0.3-2.8-0.7-3.9c-0.4-1.1-1.1-1.9-2-2.6
			c-0.9-0.7-2.2-1.2-3.9-1.5c-1.7-0.4-3.8-0.6-6.4-0.8c-2.6-0.1-5.8-0.2-9.6-0.3l-38.4-0.3l-0.2,27.1l-8.5-0.1l0.5-68.4l48.4,0.3
			c5.2,0,9.6,0.3,13.2,0.6c3.6,0.4,6.5,1,8.8,1.7c2.3,0.8,4.1,1.7,5.4,2.8c1.2,1.1,2.2,2.4,2.7,3.9c0.6,1.5,0.9,3.1,1,5
			c0.1,1.8,0.1,3.9,0.1,6.1c0,2.9-0.2,5.4-0.6,7.5c-0.4,2.1-1.1,4-2.1,5.5c-1,1.5-2.2,2.7-3.8,3.6c-1.6,0.9-3.6,1.5-5.9,1.8
			c2.4,0.4,4.3,1,5.7,1.9c1.4,0.9,2.5,2.1,3.3,3.5c0.8,1.4,1.3,3.1,1.5,5.1c0.2,2,0.4,4.2,0.3,6.7L997.5,211.4L997.5,211.4z
			 M927.9,176.8l39.8,0.3c3.8,0,7,0,9.6-0.1c2.6-0.1,4.8-0.4,6.4-0.7c1.7-0.3,3-0.8,3.9-1.5c0.9-0.6,1.6-1.5,2-2.6
			c0.4-1.1,0.7-2.3,0.8-3.8c0.1-1.5,0.1-3.3,0.1-5.4c0-1.9,0-3.6-0.1-5c-0.1-1.4-0.3-2.6-0.7-3.5c-0.4-1-1.1-1.7-2-2.3
			c-0.9-0.6-2.2-1-3.9-1.3c-1.7-0.3-3.8-0.5-6.4-0.6c-2.6-0.1-5.8-0.2-9.6-0.2l-39.8-0.3L927.9,176.8L927.9,176.8z"/>
		<path class="st1" d="M1085.7,143.7l8.8,0.1l-36.3,68.1l-12.5-0.1l-35.4-68.6l9.9,0.1l32.4,62.9L1085.7,143.7L1085.7,143.7z"/>
		<path class="st1" d="M1109.3,143.8l8.5,0.1l-0.5,68.4l-8.5-0.1L1109.3,143.8L1109.3,143.8z"/>
		<path class="st1" d="M1145.3,212.4l-8.5-0.1l0.5-68.4l15,0.1l62.3,60.3l0.4-59.8l8.6,0.1L1223,213l-11.4-0.1l-65.9-61.7
			L1145.3,212.4L1145.3,212.4z"/>
		<path class="st1" d="M1316.8,166.6c0-3.6-0.3-6.4-1.1-8.5c-0.8-2.1-2-3.7-3.8-4.8c-1.8-1.1-4.1-1.8-7-2.1
			c-2.9-0.3-6.5-0.5-10.8-0.5l-22.9-0.2c-3.8,0-7,0.1-9.6,0.3c-2.6,0.2-4.8,0.6-6.4,1.3c-1.7,0.7-3,1.6-3.9,2.9
			c-0.9,1.3-1.6,2.9-2,5.1c-0.4,2.1-0.7,4.7-0.8,7.8c-0.1,3.1-0.1,6.7-0.2,11c0,4.3,0,7.9,0,11c0.1,3.1,0.3,5.7,0.7,7.8
			c0.4,2.1,1.1,3.8,1.9,5.1c0.9,1.3,2.2,2.3,3.9,3c1.7,0.7,3.8,1.2,6.4,1.4c2.6,0.2,5.8,0.4,9.6,0.4l22.9,0.2c3.3,0,6.2,0,8.6-0.2
			c2.4-0.2,4.5-0.5,6.2-0.9c1.7-0.5,3.1-1.1,4.1-1.9c1-0.8,1.9-1.9,2.5-3.1c0.6-1.3,1-2.8,1.2-4.5c0.2-1.8,0.3-3.8,0.4-6.2l0-4.3
			l-34.3-0.2l0.1-7.1l42.8,0.3l-0.1,11.4c0,2.8-0.2,5.4-0.6,7.7c-0.4,2.3-1,4.4-1.9,6.1c-0.9,1.8-2.1,3.3-3.7,4.6
			c-1.5,1.3-3.4,2.4-5.8,3.2c-2.3,0.8-5.1,1.4-8.3,1.8c-3.2,0.4-6.9,0.6-11.2,0.5l-22.9-0.2c-5.2,0-9.6-0.4-13.2-1.1
			c-3.6-0.7-6.5-1.6-8.8-2.9c-2.3-1.3-4.1-2.9-5.3-4.9c-1.3-2-2.2-4.3-2.7-6.9c-0.6-2.6-0.9-5.6-0.9-8.9c-0.1-3.3-0.1-7-0.1-11
			c0-4,0.1-7.7,0.2-11c0.1-3.3,0.5-6.3,1.1-8.9c0.6-2.6,1.5-4.9,2.8-6.9c1.3-2,3.1-3.6,5.4-4.8c2.3-1.3,5.3-2.2,8.8-2.8
			c3.6-0.6,8-0.9,13.2-0.9l22.9,0.2c4.3,0,8,0.3,11.2,0.7c3.2,0.4,6,1.1,8.3,1.9c2.3,0.8,4.2,1.9,5.8,3.1c1.5,1.3,2.7,2.7,3.6,4.4
			c0.9,1.7,1.5,3.6,1.8,5.8c0.3,2.1,0.5,4.5,0.5,7.1L1316.8,166.6L1316.8,166.6z"/>
	</g>
	<g>
		<path class="st1" d="M590.7,293.8c4.7,0,8.7,0.3,12.1,0.7c3.3,0.4,6.2,1,8.5,1.8c2.3,0.8,4.1,1.7,5.5,2.9c1.4,1.1,2.4,2.4,3.1,3.9
			c0.7,1.5,1.2,3.1,1.4,4.9c0.2,1.8,0.3,3.7,0.3,5.8c0,2.1-0.2,4-0.6,5.8c-0.4,1.8-1.1,3.5-2,5c-1,1.5-2.3,2.8-3.9,4
			c-1.7,1.2-3.7,2.2-6.3,3c-2.5,0.8-5.6,1.4-9.1,1.8c-3.5,0.4-7.7,0.6-12.4,0.6l-11.4-0.1c-4.3,0-8-0.2-11.2-0.6
			c-3.2-0.3-6-0.9-8.3-1.5c-2.3-0.7-4.2-1.5-5.7-2.6c-1.5-1-2.7-2.2-3.6-3.6c-0.9-1.4-1.5-3-1.9-4.7c-0.3-1.8-0.5-3.7-0.5-5.9
			l8.5,0.1c0,2.7,0.3,4.9,1.1,6.4c0.8,1.5,2,2.7,3.8,3.5c1.8,0.8,4.1,1.3,7,1.5c2.9,0.2,6.5,0.3,10.8,0.4l11.4,0.1
			c5,0,9.1-0.2,12.4-0.6c3.3-0.5,5.9-1.2,7.9-2.2c2-1,3.4-2.4,4.2-4.1c0.8-1.7,1.2-3.7,1.2-6.2c0-2.4-0.2-4.4-0.8-6.1
			c-0.5-1.6-1.6-2.9-3.2-3.9c-1.6-1-3.9-1.7-6.8-2.1c-2.9-0.4-6.8-0.7-11.5-0.7l-11.8-0.1c-5.2,0-9.7-0.3-13.4-0.7
			c-3.7-0.4-6.8-1-9.4-1.7c-2.5-0.7-4.5-1.7-6-2.8c-1.5-1.1-2.6-2.3-3.4-3.7c-0.8-1.4-1.3-3-1.5-4.6c-0.2-1.7-0.3-3.6-0.3-5.6
			c0-2.1,0.2-4,0.6-5.8c0.4-1.8,1.1-3.4,2.1-4.8c1-1.4,2.4-2.7,4.1-3.8c1.8-1.1,4-2,6.8-2.8c2.8-0.7,6.1-1.3,9.9-1.6
			c3.9-0.4,8.4-0.5,13.6-0.5l8.6,0.1c4.3,0,8,0.2,11.2,0.5c3.2,0.3,6,0.8,8.3,1.5c2.3,0.7,4.2,1.5,5.7,2.5c1.5,1,2.7,2.2,3.6,3.6
			c0.9,1.4,1.5,2.9,1.9,4.7c0.3,1.8,0.5,3.7,0.5,5.8l-8.6-0.1c0-2.7-0.4-4.8-1.1-6.3c-0.8-1.5-2-2.7-3.8-3.4c-1.8-0.8-4.1-1.3-7-1.5
			c-2.9-0.2-6.5-0.3-10.8-0.4l-8.6-0.1c-5.7,0-10.4,0.1-14.1,0.5c-3.7,0.4-6.6,1-8.7,2c-2.2,0.9-3.6,2.2-4.5,3.8
			c-0.8,1.6-1.3,3.6-1.3,6c0,1.5,0.1,2.8,0.3,4c0.2,1.2,0.6,2.2,1.3,3.1c0.6,0.9,1.5,1.6,2.7,2.2c1.1,0.6,2.7,1.1,4.6,1.5
			c1.9,0.4,4.2,0.7,6.9,0.9c2.8,0.2,6,0.3,9.8,0.3L590.7,293.8L590.7,293.8z"/>
		<path class="st1" d="M635.5,264.2l11.4,0.1l31.1,33.7l31.5-33.3l11.4,0.1l-38.7,39.6l-0.2,28.5l-8.5-0.1l0.2-28.5L635.5,264.2
			L635.5,264.2z"/>
		<path class="st1" d="M781.5,295.1c4.7,0,8.7,0.3,12,0.7c3.4,0.4,6.2,1,8.5,1.8c2.3,0.8,4.1,1.7,5.5,2.9c1.3,1.1,2.4,2.4,3.1,3.9
			c0.7,1.5,1.2,3.1,1.4,4.9c0.2,1.8,0.3,3.7,0.3,5.8c0,2.1-0.2,4-0.6,5.8c-0.4,1.8-1.1,3.5-2,5c-1,1.5-2.2,2.8-3.9,4
			c-1.6,1.2-3.7,2.2-6.2,3c-2.5,0.8-5.6,1.4-9.1,1.8c-3.5,0.4-7.7,0.6-12.4,0.6l-11.4-0.1c-4.3,0-8-0.2-11.2-0.6
			c-3.2-0.3-5.9-0.9-8.3-1.5c-2.3-0.7-4.2-1.5-5.7-2.6c-1.5-1-2.7-2.2-3.6-3.6c-0.9-1.4-1.5-3-1.9-4.7c-0.3-1.8-0.5-3.7-0.5-5.9
			l8.5,0.1c0,2.7,0.4,4.9,1.1,6.4c0.8,1.5,2,2.7,3.8,3.5c1.8,0.8,4.1,1.3,7,1.5c2.9,0.2,6.5,0.3,10.8,0.4l11.4,0.1
			c5,0,9.1-0.2,12.4-0.6c3.3-0.5,5.9-1.2,7.9-2.2c2-1,3.4-2.4,4.2-4.1c0.8-1.7,1.2-3.7,1.3-6.2c0-2.4-0.2-4.4-0.8-6.1
			c-0.5-1.6-1.6-2.9-3.2-3.9c-1.6-1-3.9-1.7-6.8-2.1c-2.9-0.4-6.8-0.7-11.5-0.7l-11.8-0.1c-5.2,0-9.7-0.3-13.4-0.7
			c-3.7-0.4-6.8-1-9.4-1.7c-2.5-0.7-4.5-1.7-6-2.8c-1.5-1.1-2.7-2.3-3.4-3.7c-0.8-1.4-1.3-3-1.5-4.7c-0.2-1.7-0.3-3.6-0.3-5.6
			c0-2.1,0.2-4,0.6-5.8c0.4-1.8,1.1-3.4,2.1-4.8c1-1.4,2.4-2.7,4.2-3.8c1.8-1.1,4-2,6.8-2.8c2.8-0.7,6.1-1.3,9.9-1.6
			c3.9-0.4,8.4-0.5,13.6-0.5l8.5,0.1c4.3,0,8,0.2,11.2,0.5c3.2,0.3,6,0.8,8.3,1.5c2.3,0.7,4.2,1.5,5.7,2.5c1.5,1,2.7,2.2,3.6,3.6
			c0.9,1.4,1.5,2.9,1.9,4.7c0.4,1.8,0.5,3.7,0.5,5.8l-8.5-0.1c0-2.7-0.3-4.8-1.1-6.3c-0.7-1.5-2-2.7-3.8-3.4c-1.8-0.8-4.1-1.3-7-1.5
			c-2.9-0.2-6.5-0.3-10.8-0.4l-8.5-0.1c-5.7,0-10.4,0.1-14.1,0.5c-3.7,0.4-6.6,1-8.7,2c-2.1,0.9-3.6,2.2-4.5,3.8
			c-0.8,1.6-1.3,3.6-1.3,6c0,1.5,0.1,2.8,0.3,4c0.2,1.2,0.6,2.2,1.3,3.1c0.6,0.9,1.5,1.6,2.7,2.2c1.2,0.6,2.7,1.1,4.6,1.5
			c1.9,0.4,4.2,0.7,6.9,0.9c2.7,0.2,6,0.3,9.8,0.3L781.5,295.1L781.5,295.1z"/>
		<path class="st1" d="M903.3,266l0,7.1l-34.2-0.2l-0.4,61.3l-8.6-0.1l0.4-61.3l-34.2-0.2l0-7.1L903.3,266L903.3,266z"/>
		<path class="st1" d="M919.3,334.5l0.5-68.4l68.4,0.5l0,7.1l-59.8-0.4l-0.2,22.8l57,0.4l0,7.1l-57-0.4l-0.2,24.2l59.8,0.4l0,7.1
			L919.3,334.5L919.3,334.5z"/>
		<path class="st1" d="M1010.3,272.4l-0.4,62.7l-8.6-0.1l0.5-68.4l13.7,0.1l39.4,60.1l40.3-59.6l14.1,0.1l-0.5,68.4l-8.5-0.1
			l0.4-61.7l-41,61.5l-8.6-0.1L1010.3,272.4L1010.3,272.4z"/>
	</g>
</g>
<g>
	<path class="st1" d="M537.2,426.8v-43.1h3.9v39.4h16.5v3.7L537.2,426.8L537.2,426.8z"/>
	<path class="st1" d="M561.9,388.6v-4.9h4.3v4.9L561.9,388.6L561.9,388.6z M562.2,426.8V396h3.7v30.8H562.2z"/>
	<path class="st1" d="M594.1,419c0,1.2-0.3,2.4-0.8,3.4s-1.2,1.9-2,2.7c-0.9,0.7-1.9,1.3-3,1.7c-1.1,0.4-2.3,0.6-3.6,0.6h-2.5
		c-1.2,0-2.4-0.2-3.6-0.7c-1.1-0.5-2.1-1.1-3-1.9c-0.9-0.8-1.5-1.8-2-2.9c-0.5-1.1-0.8-2.3-0.8-3.5v-1.2l3.7-0.6v2
		c0,0.7,0.2,1.4,0.5,2.1c0.3,0.6,0.7,1.2,1.2,1.7s1.1,0.9,1.8,1.1c0.7,0.3,1.4,0.4,2.1,0.4h2.5c0.7,0,1.5-0.1,2.1-0.3
		c0.7-0.2,1.3-0.5,1.8-0.9c0.5-0.4,1-0.9,1.3-1.5c0.3-0.6,0.5-1.2,0.5-2c0-1.1-0.2-2-0.7-2.7c-0.5-0.7-1.1-1.3-1.9-1.8
		c-0.8-0.5-1.7-0.9-2.7-1.2c-1-0.3-2-0.6-3.1-0.9c-1.1-0.3-2.1-0.7-3.1-1.1c-1-0.4-1.9-0.9-2.7-1.6c-0.8-0.6-1.4-1.5-1.9-2.4
		c-0.5-1-0.7-2.2-0.7-3.7c0-1.2,0.2-2.4,0.7-3.4c0.5-1,1.1-1.9,2-2.7c0.8-0.7,1.8-1.3,2.9-1.7c1.1-0.4,2.3-0.6,3.5-0.6h2.2
		c1.2,0,2.4,0.2,3.5,0.7c1.1,0.5,2.1,1.1,2.9,1.9c0.8,0.8,1.5,1.8,1.9,2.9s0.7,2.3,0.7,3.5v0.1l-3.7,0.6v-0.9c0-0.7-0.1-1.4-0.4-2.1
		s-0.7-1.2-1.1-1.7c-0.5-0.5-1-0.9-1.7-1.1c-0.7-0.3-1.3-0.4-2.1-0.4h-2.2c-0.7,0-1.4,0.1-2.1,0.3s-1.2,0.5-1.7,0.9
		c-0.5,0.4-0.9,0.9-1.1,1.5c-0.3,0.6-0.4,1.2-0.4,2c0,1.1,0.2,1.9,0.7,2.6c0.5,0.7,1.1,1.2,1.9,1.7c0.8,0.5,1.7,0.8,2.7,1.2
		c1,0.3,2,0.6,3.1,1s2.1,0.7,3.1,1.1c1,0.4,1.9,1,2.7,1.6c0.8,0.7,1.4,1.5,1.9,2.5C593.9,416.3,594.1,417.5,594.1,419L594.1,419z"/>
	<path class="st1" d="M610.8,426.8c-1.1,0-2.2-0.2-3.2-0.6c-1-0.4-1.9-1-2.6-1.7s-1.3-1.6-1.7-2.6s-0.6-2-0.6-3.2v-19.1h-5.5V396
		h5.5v-7.4l3.7-0.6v8h7.8v3.5h-7.8v19.3c0,0.6,0.1,1.2,0.3,1.7s0.5,1,0.9,1.4c0.4,0.4,0.9,0.7,1.4,0.9s1.1,0.3,1.7,0.3h3.4v3.5
		L610.8,426.8L610.8,426.8z"/>
	<path class="st1" d="M639.3,421.9c-0.5,1.1-1.1,2.1-1.9,2.9s-1.8,1.5-2.9,1.9s-2.3,0.7-3.5,0.7h-2.5c-1.2,0-2.4-0.2-3.5-0.7
		c-1.1-0.5-2.1-1.1-2.9-1.9c-0.8-0.8-1.5-1.8-1.9-2.9c-0.5-1.1-0.7-2.3-0.7-3.5v-13.9c0-1.2,0.2-2.4,0.7-3.5
		c0.5-1.1,1.1-2.1,1.9-2.9s1.8-1.5,2.9-1.9c1.1-0.5,2.3-0.7,3.5-0.7h2.5c1.2,0,2.4,0.2,3.5,0.7c1.1,0.5,2.1,1.1,2.9,1.9
		c0.8,0.8,1.5,1.8,1.9,2.9c0.5,1.1,0.7,2.3,0.7,3.5v7.2h-16.8v6.8c0,0.7,0.1,1.4,0.4,2.1c0.3,0.6,0.7,1.2,1.1,1.7s1,0.9,1.7,1.1
		c0.7,0.3,1.3,0.4,2.1,0.4h2.5c0.7,0,1.4-0.1,2.1-0.4c0.7-0.3,1.2-0.7,1.7-1.1c0.5-0.5,0.9-1,1.1-1.7c0.3-0.6,0.4-1.3,0.4-2.1v-2
		l3.7,0.6v1.2C640,419.6,639.8,420.8,639.3,421.9L639.3,421.9z M636.3,404.3c0-0.7-0.1-1.4-0.4-2.1s-0.7-1.2-1.1-1.7
		c-0.5-0.5-1-0.9-1.7-1.1c-0.7-0.3-1.3-0.4-2.1-0.4h-2.5c-0.7,0-1.4,0.1-2.1,0.4c-0.7,0.3-1.2,0.7-1.7,1.1c-0.5,0.5-0.9,1-1.1,1.7
		c-0.3,0.6-0.4,1.3-0.4,2.1v4.6h13.2L636.3,404.3L636.3,404.3z"/>
	<path class="st1" d="M662.7,426.8v-22.5c0-0.7-0.1-1.4-0.4-2.1c-0.3-0.6-0.7-1.2-1.1-1.7c-0.5-0.5-1-0.9-1.7-1.1
		c-0.7-0.3-1.3-0.4-2.1-0.4h-2.5c-0.7,0-1.4,0.1-2.1,0.4c-0.7,0.3-1.2,0.7-1.7,1.1c-0.5,0.5-0.9,1-1.1,1.7c-0.3,0.6-0.4,1.3-0.4,2.1
		v22.5h-3.7V396h1.2l2,3.1c0.8-1.1,1.9-2,3.2-2.7c1.3-0.7,2.7-1,4.2-1h0.9c1.2,0,2.4,0.2,3.5,0.7c1.1,0.5,2.1,1.1,2.9,1.9
		c0.8,0.8,1.5,1.8,1.9,2.9c0.5,1.1,0.7,2.3,0.7,3.5v22.3L662.7,426.8L662.7,426.8z"/>
	<path class="st1" d="M673.2,388.6v-4.9h4.3v4.9L673.2,388.6L673.2,388.6z M673.5,426.8V396h3.7v30.8H673.5z"/>
	<path class="st1" d="M701.1,426.8v-22.5c0-0.7-0.1-1.4-0.4-2.1c-0.3-0.6-0.7-1.2-1.1-1.7c-0.5-0.5-1-0.9-1.7-1.1
		c-0.7-0.3-1.3-0.4-2.1-0.4h-2.5c-0.7,0-1.4,0.1-2.1,0.4c-0.7,0.3-1.2,0.7-1.7,1.1c-0.5,0.5-0.9,1-1.1,1.7c-0.3,0.6-0.4,1.3-0.4,2.1
		v22.5h-3.7V396h1.2l2,3.1c0.8-1.1,1.9-2,3.2-2.7s2.7-1,4.2-1h0.9c1.2,0,2.4,0.2,3.5,0.7c1.1,0.5,2.1,1.1,2.9,1.9
		c0.8,0.8,1.5,1.8,1.9,2.9c0.5,1.1,0.7,2.3,0.7,3.5v22.3L701.1,426.8L701.1,426.8z"/>
	<path class="st1" d="M730.8,434.1c-0.5,1-1.1,1.9-1.9,2.7c-0.8,0.7-1.8,1.3-2.9,1.7c-1.1,0.4-2.3,0.6-3.5,0.6h-1.5
		c-1.2,0-2.4-0.2-3.5-0.6c-1.1-0.4-2.1-1-2.9-1.7c-0.8-0.7-1.5-1.6-1.9-2.7s-0.7-2.2-0.7-3.4v-0.1c0-1.2,0.2-2.3,0.7-3.3
		c0.4-1,1-1.9,1.8-2.6c-1-0.6-1.7-1.4-2.3-2.4c-0.6-1-0.9-2.1-0.9-3.3c0-1.1,0.2-2.1,0.7-3s1.1-1.7,1.9-2.3c-1-0.8-1.7-1.9-2.3-3
		s-0.8-2.5-0.8-3.9v-2.3c0-1.2,0.2-2.4,0.7-3.5c0.5-1.1,1.1-2.1,1.9-2.9s1.8-1.5,2.9-1.9c1.1-0.5,2.3-0.7,3.5-0.7h1.5
		c1.5,0,2.9,0.3,4.2,1s2.3,1.6,3.2,2.7l2-3.1h1.2v10.8c0,1.2-0.2,2.4-0.7,3.5c-0.5,1.1-1.1,2.1-1.9,2.9c-0.8,0.8-1.8,1.5-2.9,1.9
		c-1.1,0.5-2.3,0.7-3.5,0.7h-5.3c-0.4,0-0.8,0.1-1.2,0.3s-0.7,0.4-1,0.7s-0.5,0.6-0.7,1s-0.2,0.8-0.2,1.2s0.1,0.8,0.2,1.2
		c0.2,0.4,0.4,0.7,0.7,1c0.3,0.3,0.6,0.5,1,0.7c0.4,0.2,0.8,0.2,1.2,0.2h5c1.2,0,2.4,0.2,3.5,0.6c1.1,0.4,2.1,1,2.9,1.7
		c0.8,0.7,1.5,1.6,1.9,2.7c0.5,1,0.7,2.2,0.7,3.4v0.1C731.5,431.9,731.2,433,730.8,434.1L730.8,434.1z M728.1,404.3
		c0-0.7-0.1-1.4-0.4-2.1s-0.7-1.2-1.2-1.7c-0.5-0.5-1.1-0.9-1.7-1.1c-0.7-0.3-1.3-0.4-2.1-0.4h-3.1c-0.7,0-1.4,0.1-2.1,0.4
		c-0.7,0.3-1.2,0.7-1.7,1.1c-0.5,0.5-0.9,1-1.1,1.7c-0.3,0.6-0.4,1.3-0.4,2.1v2.7c0,0.7,0.1,1.4,0.4,2.1c0.3,0.6,0.7,1.2,1.1,1.7
		s1,0.9,1.7,1.1c0.7,0.3,1.3,0.4,2.1,0.4h3.1c0.7,0,1.4-0.1,2.1-0.4s1.2-0.7,1.7-1.1s0.9-1,1.2-1.7c0.3-0.6,0.4-1.3,0.4-2.1
		L728.1,404.3L728.1,404.3z M728,430.4c0-0.7-0.1-1.4-0.4-2c-0.3-0.6-0.7-1.1-1.1-1.5c-0.5-0.4-1-0.7-1.7-0.9
		c-0.7-0.2-1.3-0.3-2.1-0.3h-1.9c-0.7,0-1.4,0.1-2.1,0.3s-1.2,0.5-1.7,0.9c-0.5,0.4-0.9,0.9-1.1,1.5c-0.3,0.6-0.4,1.3-0.4,2v0.5
		c0,0.7,0.1,1.4,0.4,2c0.3,0.6,0.7,1.1,1.1,1.5c0.5,0.4,1,0.7,1.7,0.9c0.7,0.2,1.3,0.3,2.1,0.3h1.9c0.7,0,1.4-0.1,2.1-0.3
		c0.7-0.2,1.2-0.5,1.7-0.9s0.9-0.9,1.1-1.5c0.3-0.6,0.4-1.2,0.4-2L728,430.4L728,430.4z"/>
	<path class="st1" d="M761.3,387.4v39.4h-3.9v-39.4h-10.3v-3.7h24.4v3.7L761.3,387.4L761.3,387.4z"/>
	<path class="st1" d="M792.3,421.9c-0.5,1.1-1.1,2.1-1.9,2.9c-0.8,0.8-1.8,1.5-2.9,1.9c-1.1,0.5-2.3,0.7-3.5,0.7h-2.5
		c-1.2,0-2.4-0.2-3.5-0.7c-1.1-0.5-2.1-1.1-2.9-1.9c-0.8-0.8-1.5-1.8-1.9-2.9c-0.5-1.1-0.7-2.3-0.7-3.5v-13.9c0-1.2,0.2-2.4,0.7-3.5
		s1.1-2.1,1.9-2.9c0.8-0.8,1.8-1.5,2.9-1.9c1.1-0.5,2.3-0.7,3.5-0.7h2.5c1.2,0,2.4,0.2,3.5,0.7s2.1,1.1,2.9,1.9s1.5,1.8,1.9,2.9
		c0.5,1.1,0.7,2.3,0.7,3.5v13.9C793,419.6,792.8,420.8,792.3,421.9L792.3,421.9z M789.3,404.3c0-0.7-0.1-1.4-0.4-2.1
		s-0.7-1.2-1.1-1.7c-0.5-0.5-1-0.9-1.7-1.1c-0.7-0.3-1.3-0.4-2.1-0.4h-2.5c-0.7,0-1.4,0.1-2.1,0.4c-0.7,0.3-1.2,0.7-1.7,1.1
		c-0.5,0.5-0.9,1-1.1,1.7s-0.4,1.3-0.4,2.1v14.3c0,0.7,0.1,1.4,0.4,2.1c0.3,0.6,0.7,1.2,1.1,1.7s1,0.9,1.7,1.1s1.3,0.4,2.1,0.4h2.5
		c0.7,0,1.4-0.1,2.1-0.4s1.2-0.7,1.7-1.1s0.9-1,1.1-1.7c0.3-0.6,0.4-1.3,0.4-2.1L789.3,404.3L789.3,404.3z"/>
	<path class="st1" d="M823.2,387.4v39.4h-3.9v-39.4H809v-3.7h24.4v3.7L823.2,387.4L823.2,387.4z"/>
	<path class="st1" d="M853.7,426.8v-22.5c0-0.7-0.1-1.4-0.4-2.1s-0.7-1.2-1.1-1.7c-0.5-0.5-1-0.9-1.7-1.1c-0.7-0.3-1.3-0.4-2.1-0.4
		h-2.5c-0.7,0-1.4,0.1-2.1,0.4c-0.7,0.3-1.2,0.7-1.7,1.1c-0.5,0.5-0.9,1-1.1,1.7c-0.3,0.6-0.4,1.3-0.4,2.1v22.5h-3.7v-43.1h3.7v14.9
		c0.8-1,1.8-1.8,3-2.3c1.2-0.6,2.5-0.8,3.8-0.8h0.9c1.2,0,2.4,0.2,3.5,0.7c1.1,0.5,2.1,1.1,2.9,1.9c0.8,0.8,1.5,1.8,1.9,2.9
		c0.5,1.1,0.7,2.3,0.7,3.5v22.3L853.7,426.8L853.7,426.8z"/>
	<path class="st1" d="M883.1,421.9c-0.5,1.1-1.1,2.1-1.9,2.9c-0.8,0.8-1.8,1.5-2.9,1.9c-1.1,0.5-2.3,0.7-3.5,0.7h-2.5
		c-1.2,0-2.4-0.2-3.5-0.7c-1.1-0.5-2.1-1.1-2.9-1.9c-0.8-0.8-1.5-1.8-1.9-2.9c-0.5-1.1-0.7-2.3-0.7-3.5v-13.9c0-1.2,0.2-2.4,0.7-3.5
		s1.1-2.1,1.9-2.9c0.8-0.8,1.8-1.5,2.9-1.9c1.1-0.5,2.3-0.7,3.5-0.7h2.5c1.2,0,2.4,0.2,3.5,0.7s2.1,1.1,2.9,1.9s1.5,1.8,1.9,2.9
		c0.5,1.1,0.7,2.3,0.7,3.5v7.2h-16.8v6.8c0,0.7,0.1,1.4,0.4,2.1c0.3,0.6,0.7,1.2,1.1,1.7c0.5,0.5,1,0.9,1.7,1.1s1.3,0.4,2.1,0.4h2.5
		c0.7,0,1.4-0.1,2.1-0.4s1.2-0.7,1.7-1.1s0.9-1,1.1-1.7c0.3-0.6,0.4-1.3,0.4-2.1v-2l3.7,0.6v1.2
		C883.8,419.6,883.5,420.8,883.1,421.9L883.1,421.9z M880.1,404.3c0-0.7-0.1-1.4-0.4-2.1c-0.3-0.6-0.7-1.2-1.1-1.7
		c-0.5-0.5-1-0.9-1.7-1.1c-0.7-0.3-1.3-0.4-2.1-0.4h-2.5c-0.7,0-1.4,0.1-2.1,0.4s-1.2,0.7-1.7,1.1c-0.5,0.5-0.9,1-1.1,1.7
		s-0.4,1.3-0.4,2.1v4.6h13.2L880.1,404.3L880.1,404.3z"/>
	<path class="st1" d="M926.9,403.8c-0.5,1.3-1.3,2.4-2.3,3.4c-1,1-2.1,1.7-3.4,2.3c-1.3,0.5-2.7,0.8-4.1,0.8h-9.8v16.5h-3.9v-43.1
		h13.6c1.5,0,2.8,0.3,4.1,0.8s2.4,1.3,3.4,2.3c1,1,1.7,2.1,2.3,3.4s0.8,2.7,0.8,4.1v5.3C927.7,401.1,927.4,402.5,926.9,403.8
		L926.9,403.8z M923.8,394.3c0-1-0.2-1.9-0.5-2.7c-0.4-0.8-0.9-1.6-1.5-2.2s-1.4-1.1-2.2-1.5c-0.8-0.4-1.7-0.5-2.7-0.5h-9.6v19.1
		h9.6c1,0,1.9-0.2,2.7-0.5c0.8-0.4,1.6-0.9,2.2-1.5s1.1-1.3,1.5-2.2c0.4-0.8,0.5-1.7,0.5-2.7L923.8,394.3L923.8,394.3z"/>
	<path class="st1" d="M951.6,426.8l-2-3.1c-0.8,1.1-1.9,2-3.2,2.7c-1.3,0.7-2.6,1-4.1,1h-0.9c-1.2,0-2.4-0.2-3.5-0.7
		c-1.1-0.5-2.1-1.1-2.9-1.9c-0.8-0.8-1.5-1.8-1.9-2.9c-0.5-1.1-0.7-2.3-0.7-3.5V396h3.7v22.5c0,0.7,0.1,1.4,0.4,2.1
		c0.3,0.6,0.7,1.2,1.1,1.7c0.5,0.5,1,0.9,1.7,1.1s1.3,0.4,2.1,0.4h2.5c0.7,0,1.4-0.1,2.1-0.4s1.2-0.7,1.7-1.1c0.5-0.5,0.9-1,1.1-1.7
		c0.3-0.6,0.4-1.3,0.4-2.1V396h3.7v30.8L951.6,426.8L951.6,426.8z"/>
	<path class="st1" d="M959.9,426.8v-43.1h3.7v43.1H959.9L959.9,426.8z"/>
	<path class="st1" d="M991.8,419c0,1.2-0.3,2.4-0.8,3.4s-1.2,1.9-2,2.7c-0.9,0.7-1.9,1.3-3,1.7s-2.3,0.6-3.6,0.6H980
		c-1.2,0-2.4-0.2-3.6-0.7c-1.1-0.5-2.1-1.1-3-1.9c-0.8-0.8-1.5-1.8-2-2.9c-0.5-1.1-0.8-2.3-0.8-3.5v-1.2l3.7-0.6v2
		c0,0.7,0.2,1.4,0.5,2.1c0.3,0.6,0.7,1.2,1.2,1.7c0.5,0.5,1.1,0.9,1.8,1.1c0.7,0.3,1.4,0.4,2.1,0.4h2.5c0.7,0,1.5-0.1,2.1-0.3
		c0.7-0.2,1.3-0.5,1.8-0.9c0.5-0.4,1-0.9,1.3-1.5c0.3-0.6,0.5-1.2,0.5-2c0-1.1-0.2-2-0.7-2.7c-0.5-0.7-1.1-1.3-1.9-1.8
		c-0.8-0.5-1.7-0.9-2.7-1.2c-1-0.3-2-0.6-3.1-0.9c-1.1-0.3-2.1-0.7-3.1-1.1c-1-0.4-1.9-0.9-2.7-1.6c-0.8-0.6-1.4-1.5-1.9-2.4
		c-0.5-1-0.7-2.2-0.7-3.7c0-1.2,0.2-2.4,0.7-3.4s1.1-1.9,2-2.7c0.8-0.7,1.8-1.3,2.9-1.7c1.1-0.4,2.3-0.6,3.5-0.6h2.2
		c1.2,0,2.4,0.2,3.5,0.7c1.1,0.5,2.1,1.1,2.9,1.9c0.8,0.8,1.5,1.8,1.9,2.9c0.5,1.1,0.7,2.3,0.7,3.5v0.1l-3.7,0.6v-0.9
		c0-0.7-0.1-1.4-0.4-2.1s-0.7-1.2-1.1-1.7c-0.5-0.5-1-0.9-1.7-1.1c-0.7-0.3-1.3-0.4-2.1-0.4h-2.2c-0.7,0-1.4,0.1-2.1,0.3
		c-0.7,0.2-1.2,0.5-1.7,0.9c-0.5,0.4-0.9,0.9-1.1,1.5c-0.3,0.6-0.4,1.2-0.4,2c0,1.1,0.2,1.9,0.7,2.6c0.5,0.7,1.1,1.2,1.9,1.7
		c0.8,0.5,1.7,0.8,2.7,1.2c1,0.3,2,0.6,3.1,1s2.1,0.7,3.1,1.1c1,0.4,1.9,1,2.7,1.6c0.8,0.7,1.4,1.5,1.9,2.5
		C991.6,416.3,991.8,417.5,991.8,419L991.8,419z"/>
	<path class="st1" d="M1017.2,421.9c-0.5,1.1-1.1,2.1-1.9,2.9c-0.8,0.8-1.8,1.5-2.9,1.9s-2.3,0.7-3.5,0.7h-2.5
		c-1.2,0-2.4-0.2-3.5-0.7c-1.1-0.5-2.1-1.1-2.9-1.9c-0.8-0.8-1.5-1.8-1.9-2.9c-0.5-1.1-0.7-2.3-0.7-3.5v-13.9c0-1.2,0.2-2.4,0.7-3.5
		s1.1-2.1,1.9-2.9c0.8-0.8,1.8-1.5,2.9-1.9c1.1-0.5,2.3-0.7,3.5-0.7h2.5c1.2,0,2.4,0.2,3.5,0.7s2.1,1.1,2.9,1.9s1.5,1.8,1.9,2.9
		c0.5,1.1,0.7,2.3,0.7,3.5v7.2h-16.8v6.8c0,0.7,0.1,1.4,0.4,2.1c0.3,0.6,0.7,1.2,1.1,1.7c0.5,0.5,1,0.9,1.7,1.1s1.3,0.4,2.1,0.4h2.5
		c0.7,0,1.4-0.1,2.1-0.4s1.2-0.7,1.7-1.1c0.5-0.5,0.9-1,1.1-1.7c0.3-0.6,0.4-1.3,0.4-2.1v-2l3.7,0.6v1.2
		C1017.9,419.6,1017.7,420.8,1017.2,421.9L1017.2,421.9z M1014.2,404.3c0-0.7-0.1-1.4-0.4-2.1c-0.3-0.6-0.7-1.2-1.1-1.7
		c-0.5-0.5-1-0.9-1.7-1.1c-0.7-0.3-1.3-0.4-2.1-0.4h-2.5c-0.7,0-1.4,0.1-2.1,0.4s-1.2,0.7-1.7,1.1c-0.5,0.5-0.9,1-1.1,1.7
		s-0.4,1.3-0.4,2.1v4.6h13.2L1014.2,404.3L1014.2,404.3z"/>
	<path class="st1" d="M1060.4,420.9c-0.6,1.3-1.3,2.4-2.3,3.4c-1,1-2.1,1.7-3.4,2.3c-1.3,0.5-2.7,0.8-4.1,0.8h-3.1
		c-1.5,0-2.8-0.3-4.1-0.8c-1.3-0.5-2.4-1.3-3.4-2.3c-1-1-1.7-2.1-2.3-3.4c-0.6-1.3-0.8-2.7-0.8-4.1v-23.1c0-1.5,0.3-2.8,0.8-4.1
		c0.6-1.3,1.3-2.4,2.3-3.4c1-1,2.1-1.7,3.4-2.3c1.3-0.5,2.7-0.8,4.1-0.8h3.1c1.5,0,2.8,0.3,4.1,0.8c1.3,0.5,2.4,1.3,3.4,2.3
		c1,1,1.7,2.1,2.3,3.4c0.6,1.3,0.8,2.7,0.8,4.1v23.1C1061.2,418.3,1060.9,419.6,1060.4,420.9L1060.4,420.9z M1057.3,393.7
		c0-1-0.2-1.9-0.5-2.7c-0.4-0.8-0.9-1.6-1.5-2.2c-0.6-0.6-1.3-1.1-2.2-1.5s-1.7-0.5-2.7-0.5h-2.7c-1,0-1.9,0.2-2.7,0.5
		s-1.6,0.9-2.2,1.5s-1.1,1.3-1.5,2.2c-0.4,0.8-0.5,1.7-0.5,2.7v23.1c0,1,0.2,1.9,0.5,2.7c0.4,0.8,0.9,1.6,1.5,2.2
		c0.6,0.6,1.4,1.1,2.2,1.5s1.7,0.5,2.7,0.5h2.7c1,0,1.9-0.2,2.7-0.5s1.6-0.9,2.2-1.5c0.6-0.6,1.1-1.4,1.5-2.2
		c0.4-0.8,0.5-1.7,0.5-2.7L1057.3,393.7L1057.3,393.7z"/>
	<path class="st1" d="M1078.3,387.2c-0.6,0-1.2,0.1-1.7,0.3s-1,0.5-1.4,0.9s-0.7,0.9-0.9,1.4c-0.2,0.5-0.3,1.1-0.3,1.7v4.4h7.2v3.5
		h-7.2v27.2h-3.7v-27.2h-5.6V396h5.6v-4.2c0-1.1,0.2-2.2,0.6-3.2c0.4-1,1-1.9,1.7-2.6c0.7-0.7,1.6-1.3,2.6-1.7c1-0.4,2-0.6,3.2-0.6
		h3.4v3.5L1078.3,387.2L1078.3,387.2z"/>
	<path class="st1" d="M1108.1,387.4v39.4h-3.9v-39.4H1094v-3.7h24.4v3.7L1108.1,387.4L1108.1,387.4z"/>
	<path class="st1" d="M1138.6,426.8v-22.5c0-0.7-0.1-1.4-0.4-2.1s-0.7-1.2-1.1-1.7c-0.5-0.5-1-0.9-1.7-1.1c-0.7-0.3-1.3-0.4-2.1-0.4
		h-2.5c-0.7,0-1.4,0.1-2.1,0.4s-1.2,0.7-1.7,1.1c-0.5,0.5-0.9,1-1.1,1.7s-0.4,1.3-0.4,2.1v22.5h-3.7v-43.1h3.7v14.9
		c0.8-1,1.8-1.8,3-2.3c1.2-0.6,2.5-0.8,3.8-0.8h0.9c1.2,0,2.4,0.2,3.5,0.7s2.1,1.1,2.9,1.9s1.5,1.8,1.9,2.9c0.5,1.1,0.7,2.3,0.7,3.5
		v22.3L1138.6,426.8L1138.6,426.8z"/>
	<path class="st1" d="M1168,421.9c-0.5,1.1-1.1,2.1-1.9,2.9c-0.8,0.8-1.8,1.5-2.9,1.9c-1.1,0.5-2.3,0.7-3.5,0.7h-2.5
		c-1.2,0-2.4-0.2-3.5-0.7c-1.1-0.5-2.1-1.1-2.9-1.9c-0.8-0.8-1.5-1.8-1.9-2.9c-0.5-1.1-0.7-2.3-0.7-3.5v-13.9c0-1.2,0.2-2.4,0.7-3.5
		s1.1-2.1,1.9-2.9c0.8-0.8,1.8-1.5,2.9-1.9c1.1-0.5,2.3-0.7,3.5-0.7h2.5c1.2,0,2.4,0.2,3.5,0.7c1.1,0.5,2.1,1.1,2.9,1.9
		c0.8,0.8,1.5,1.8,1.9,2.9s0.7,2.3,0.7,3.5v7.2h-16.8v6.8c0,0.7,0.1,1.4,0.4,2.1c0.3,0.6,0.7,1.2,1.1,1.7c0.5,0.5,1,0.9,1.7,1.1
		s1.3,0.4,2.1,0.4h2.5c0.7,0,1.4-0.1,2.1-0.4s1.2-0.7,1.7-1.1c0.5-0.5,0.9-1,1.1-1.7c0.3-0.6,0.4-1.3,0.4-2.1v-2l3.7,0.6v1.2
		C1168.7,419.6,1168.4,420.8,1168,421.9L1168,421.9z M1165,404.3c0-0.7-0.1-1.4-0.4-2.1c-0.3-0.6-0.7-1.2-1.1-1.7s-1-0.9-1.7-1.1
		c-0.7-0.3-1.3-0.4-2.1-0.4h-2.5c-0.7,0-1.4,0.1-2.1,0.4s-1.2,0.7-1.7,1.1c-0.5,0.5-0.9,1-1.1,1.7s-0.4,1.3-0.4,2.1v4.6h13.2
		L1165,404.3L1165,404.3z"/>
	<path class="st1" d="M1211.8,403.8c-0.6,1.3-1.3,2.4-2.3,3.4s-2.1,1.7-3.4,2.3c-1.3,0.5-2.7,0.8-4.1,0.8h-9.8v16.5h-3.9v-43.1h13.6
		c1.5,0,2.8,0.3,4.1,0.8s2.4,1.3,3.4,2.3s1.7,2.1,2.3,3.4c0.6,1.3,0.8,2.7,0.8,4.1v5.3C1212.6,401.1,1212.3,402.5,1211.8,403.8
		L1211.8,403.8z M1208.7,394.3c0-1-0.2-1.9-0.5-2.7c-0.4-0.8-0.9-1.6-1.5-2.2c-0.6-0.6-1.4-1.1-2.2-1.5c-0.8-0.4-1.7-0.5-2.7-0.5
		h-9.6v19.1h9.6c1,0,1.9-0.2,2.7-0.5c0.8-0.4,1.6-0.9,2.2-1.5c0.6-0.6,1.1-1.3,1.5-2.2c0.4-0.8,0.5-1.7,0.5-2.7L1208.7,394.3
		L1208.7,394.3z"/>
	<path class="st1" d="M1218.5,426.8v-43.1h3.7v43.1H1218.5z"/>
	<path class="st1" d="M1248.5,426.8l-2-3.1c-0.8,1.1-1.9,2-3.2,2.7c-1.3,0.7-2.6,1-4.1,1h-0.9c-1.2,0-2.4-0.2-3.5-0.7
		c-1.1-0.5-2.1-1.1-2.9-1.9c-0.8-0.8-1.5-1.8-1.9-2.9c-0.5-1.1-0.7-2.3-0.7-3.5V418c0-1.2,0.2-2.4,0.7-3.5c0.5-1.1,1.1-2.1,1.9-2.9
		c0.8-0.8,1.8-1.5,2.9-1.9c1.1-0.5,2.3-0.7,3.5-0.7h7.8v-4.7c0-0.7-0.1-1.4-0.4-2.1s-0.7-1.2-1.1-1.7c-0.5-0.5-1-0.9-1.7-1.1
		c-0.7-0.3-1.3-0.4-2.1-0.4h-2.2c-0.7,0-1.4,0.1-2.1,0.4s-1.2,0.7-1.7,1.1c-0.5,0.5-0.9,1-1.1,1.7c-0.3,0.6-0.4,1.3-0.4,2.1v1.1
		l-3.7-0.6v-0.3c0-1.2,0.2-2.4,0.7-3.5s1.1-2.1,1.9-2.9s1.8-1.5,2.9-1.9c1.1-0.5,2.3-0.7,3.5-0.7h2.2c1.2,0,2.4,0.2,3.5,0.7
		s2.1,1.1,2.9,1.9c0.8,0.8,1.5,1.8,1.9,2.9c0.5,1.1,0.7,2.3,0.7,3.5v22.3L1248.5,426.8L1248.5,426.8z M1246.1,411.9h-7.8
		c-0.7,0-1.4,0.1-2.1,0.4c-0.7,0.3-1.2,0.7-1.7,1.2s-0.9,1.1-1.1,1.7c-0.3,0.7-0.4,1.3-0.4,2.1v1.3c0,0.7,0.1,1.4,0.4,2.1
		c0.3,0.6,0.7,1.2,1.1,1.7c0.5,0.5,1,0.9,1.7,1.1s1.3,0.4,2.1,0.4h2.5c0.7,0,1.4-0.1,2.1-0.4s1.2-0.7,1.7-1.1c0.5-0.5,0.9-1,1.1-1.7
		c0.3-0.6,0.4-1.3,0.4-2.1L1246.1,411.9L1246.1,411.9z"/>
	<path class="st1" d="M1272.5,426.8v-22.5c0-0.7-0.1-1.4-0.4-2.1c-0.3-0.6-0.7-1.2-1.1-1.7c-0.5-0.5-1-0.9-1.7-1.1
		c-0.7-0.3-1.3-0.4-2.1-0.4h-2.5c-0.7,0-1.4,0.1-2.1,0.4s-1.2,0.7-1.7,1.1c-0.5,0.5-0.9,1-1.1,1.7s-0.4,1.3-0.4,2.1v22.5h-3.7V396
		h1.2l2,3.1c0.8-1.1,1.9-2,3.2-2.7c1.3-0.7,2.7-1,4.2-1h0.9c1.2,0,2.4,0.2,3.5,0.7c1.1,0.5,2.1,1.1,2.9,1.9c0.8,0.8,1.5,1.8,1.9,2.9
		s0.7,2.3,0.7,3.5v22.3L1272.5,426.8L1272.5,426.8z"/>
	<path class="st1" d="M1301.8,421.9c-0.5,1.1-1.1,2.1-1.9,2.9c-0.8,0.8-1.8,1.5-2.9,1.9c-1.1,0.5-2.3,0.7-3.5,0.7h-2.5
		c-1.2,0-2.4-0.2-3.5-0.7c-1.1-0.5-2.1-1.1-2.9-1.9c-0.8-0.8-1.5-1.8-1.9-2.9c-0.5-1.1-0.7-2.3-0.7-3.5v-13.9c0-1.2,0.2-2.4,0.7-3.5
		c0.5-1.1,1.1-2.1,1.9-2.9c0.8-0.8,1.8-1.5,2.9-1.9c1.1-0.5,2.3-0.7,3.5-0.7h2.5c1.2,0,2.4,0.2,3.5,0.7c1.1,0.5,2.1,1.1,2.9,1.9
		s1.5,1.8,1.9,2.9c0.5,1.1,0.7,2.3,0.7,3.5v7.2h-16.8v6.8c0,0.7,0.1,1.4,0.4,2.1c0.3,0.6,0.7,1.2,1.1,1.7s1,0.9,1.7,1.1
		c0.6,0.3,1.3,0.4,2.1,0.4h2.5c0.7,0,1.4-0.1,2.1-0.4c0.7-0.3,1.2-0.7,1.7-1.1s0.9-1,1.1-1.7c0.3-0.6,0.4-1.3,0.4-2.1v-2l3.7,0.6
		v1.2C1302.5,419.6,1302.3,420.8,1301.8,421.9L1301.8,421.9z M1298.9,404.3c0-0.7-0.1-1.4-0.4-2.1c-0.3-0.6-0.7-1.2-1.1-1.7
		c-0.5-0.5-1-0.9-1.7-1.1c-0.7-0.3-1.3-0.4-2.1-0.4h-2.5c-0.7,0-1.4,0.1-2.1,0.4c-0.7,0.3-1.2,0.7-1.7,1.1c-0.5,0.5-0.9,1-1.1,1.7
		c-0.3,0.6-0.4,1.3-0.4,2.1v4.6h13.2L1298.9,404.3L1298.9,404.3z"/>
	<path class="st1" d="M1319.6,426.8c-1.1,0-2.2-0.2-3.2-0.6c-1-0.4-1.8-1-2.6-1.7s-1.3-1.6-1.7-2.6c-0.4-1-0.6-2-0.6-3.2v-19.1h-5.5
		V396h5.5v-7.4l3.7-0.6v8h7.8v3.5h-7.8v19.3c0,0.6,0.1,1.2,0.3,1.7s0.5,1,0.9,1.4s0.9,0.7,1.4,0.9c0.5,0.2,1.1,0.3,1.7,0.3h3.4v3.5
		L1319.6,426.8L1319.6,426.8z"/>
</g>
</svg>
