<svg xmlns="http://www.w3.org/2000/svg" width="392.243" height="426.197" viewBox="0 0 392.243 426.197"><path fill="none" d="M301.052 297.375c0-21.903-3.86-45.246-11.47-69.377-2.494-7.91-5.355-15.787-8.574-23.6-10.612 15.026-23.43 29.445-38.33 42.663-45.27 40.17-99.257 60.02-145.088 57.63 12.228 7.59 25.434 14.09 39.426 19.36 22.232 8.38 45.06 13.12 67.85 14.11 21.94.95 42.91-1.6 62.327-7.6 12.006-3.7 23.002-8.6 32.856-14.56.66-5.95 1-12.16 1-18.6zM231.668 72.742c-19.205-7.233-38.852-11.75-58.537-13.49 31.93 20.753 62.89 52.078 87.84 91.48 8.76 13.835 16.3 27.913 22.62 41.992 3.93-6.175 7.52-12.467 10.72-18.836 8.26-16.447 13.9-33.23 16.72-49.53-21.2-22.238-48.34-39.938-79.35-51.616zM54.02 83.914c24.857-18.89 57.822-29.744 93.89-31.012-14.725-7.225-29.064-11.892-42.788-13.95-9.65 6.4-19.016 13.597-27.968 21.542-8.276 7.343-16.013 15.194-23.135 23.42zm-10.47 181.08c3.17 5.72 6.524 11.39 10.077 17 2.227 3.52 4.52 6.98 6.858 10.39 5.38 2.18 11.02 3.916 16.877 5.214-12.892-9.842-24.237-20.835-33.81-32.605z"/><path fill="none" d="M15.485 134.793c4.135-10.984 9.906-20.992 17.03-29.948 11.235-16.813 25.212-32.95 41.74-47.617C82.115 50.254 90.24 43.9 98.54 38.163c-1.672-.15-3.337-.273-4.985-.343-17.47-.737-33.003 3.117-46.17 11.453C21.75 65.5 7.635 97.4 7.635 139.09c0 4.764.19 9.598.557 14.49 1.858-5.476 4-10.958 6.43-16.422.277-.79.563-1.58.862-2.365zM5.367 183.39c-1.02 6.82-1.557 13.558-1.557 20.128 0 25.782 7.97 48.395 23.053 65.395 6.175 6.96 13.318 12.738 21.22 17.376-.118-.19-.24-.38-.36-.57-21.423-33.84-35.56-69.14-42.356-102.34z"/><path fill="none" d="M239.783 243.795c15-13.31 28.25-28.286 39.208-44.18-6.62-15.348-14.62-30.45-23.92-45.143-14.63-23.113-31.57-43.77-50.34-61.407-14.9-13.992-30.42-25.584-46.26-34.58-19.99-.348-39.13 2.25-56.95 7.754-39.5 12.19-68.16 37.25-80.7 70.55-4.47 11.87-6.74 24.43-6.74 37.33 0 14.64 2.9 29.57 8.61 44.35 5.67 14.68 13.97 28.86 24.67 42.16 11.9 14.79 26.25 27.92 42.54 39.03 46.26 5.24 102.9-14.17 149.91-55.88z"/><path d="M298.537 322.11c2.595-1.457 5.164-3.01 7.64-4.616 14.695-9.57 26.64-21.385 35.515-35.134-1.156-.287-2.312-.62-3.457-1-7.753 11.777-17.873 22.095-30.087 30.675-2.43 1.707-4.96 3.356-7.522 4.903-10.005 6.046-21.143 10.983-33.104 14.674-19.537 6.034-40.634 8.608-62.704 7.652-22.902-.99-45.846-5.76-68.194-14.175-13.868-5.23-27.116-11.72-39.377-19.31-2.433-.13-4.864-.33-7.272-.59 14.02 9.27 29.282 17.03 45.433 23.12 57.04 21.48 118.022 19.16 163.13-6.21zM77.842 296.564c2.488.546 5.045 1.018 7.646 1.41-14.907-10.642-28.022-22.95-39.03-36.635-10.767-13.39-19.122-27.67-24.833-42.46-5.76-14.92-8.682-29.98-8.682-44.76 0-13.03 2.292-25.72 6.81-37.72 12.668-33.64 41.58-58.93 81.413-71.23 16.604-5.13 34.39-7.76 52.93-7.83-2.087-1.13-4.17-2.21-6.225-3.23l-.19-.1c-35.56 1.3-68.57 12.23-92.98 30.78-8.07 6.14-15.24 13.11-21.3 20.74-7.18 9.02-12.85 19-16.86 29.64-.29.78-.58 1.56-.85 2.34-2.78 7.94-4.65 16.22-5.54 24.63l.07.57c.08.64.15 1.27.23 1.91l.03.22-.18.67c-.2.72-.4 1.45-.59 2.18-.12 2.17-.182 4.33-.182 6.4 0 30.46 12.4 62.48 34.92 90.16 9.57 11.767 20.816 22.624 33.428 32.275zm238.838-172.82c-.244 1.52-.49 2.942-.75 4.29 2.158 2.41 4.273 4.903 6.296 7.418 10.767 13.388 19.122 27.672 24.832 42.454 1.36 3.517 2.578 7.106 3.63 10.68.883-.048 1.673-.07 2.436-.07.38 0 .76.004 1.14.014-6.55-22.837-19.503-45.162-37.585-64.787zM167.24 54.25c2.088 1.258 4.184 2.57 6.265 3.917 19.702 1.764 39.4 6.315 58.555 13.53 30.18 11.365 57.177 28.73 78.218 50.29.228-1.44.433-2.87.612-4.27-21.154-21.064-47.98-38.09-77.61-49.25-21.644-8.15-43.836-12.926-66.04-14.22z" fill="#1088C4"/><path d="M313.68 100.776c0 5.318-.358 10.907-1.064 16.61-.286 2.303-.64 4.68-1.053 7.066-2.864 16.513-8.508 33.23-16.773 49.685-3.138 6.245-6.697 12.512-10.58 18.632.533 1.19 1.056 2.38 1.57 3.57 14.18-21.91 23.996-45.43 28.41-68.08.414-2.13.803-4.43 1.187-7.04 1.033-7.01 1.557-13.89 1.557-20.45-.002-11.14-1.443-21.79-4.286-31.67-.94.65-1.91 1.27-2.896 1.85 2.607 9.38 3.928 19.41 3.928 29.81zm-260.4 192.58c3.783 1.814 7.747 3.42 11.784 4.774 6.465 2.175 13.367 3.8 20.512 4.83 3.94.568 7.992.964 12.043 1.176 47.25 2.457 101.34-19.035 144.69-57.49 14.45-12.828 27.26-27.064 38.06-42.318-.49-1.19-1-2.38-1.5-3.57-10.97 15.77-23.99 30.383-38.73 43.454-45.72 40.564-101.92 61.505-150.35 56.016-4.3-.488-8.52-1.19-12.57-2.087-5.89-1.3-11.6-3.06-16.97-5.24-4.34-1.75-8.53-3.82-12.48-6.13-8.08-4.74-15.27-10.63-21.35-17.48-15.17-17.11-23.19-39.85-23.19-65.77 0-6.44.52-13.21 1.543-20.11-.61-2.99-1.18-6.07-1.69-9.18-2.06 9.98-3.1 19.82-3.1 29.29 0 26.73 8.303 50.22 24.013 67.92 8.074 9.1 17.92 16.48 29.267 21.92zm54.502-260.634c-2.95 1.855-5.953 3.84-8.928 5.898-8.396 5.806-16.547 12.206-24.23 19.023C61.208 69.55 49.26 82.608 39 96.566c4.46-4.673 9.357-9.044 14.636-13.06C60.81 75.223 68.6 67.34 76.784 60.078c8.875-7.876 18.306-15.14 28.03-21.59 2.8-1.854 5.734-3.71 8.724-5.513 26.167-15.782 54.235-25.73 81.172-28.772 18.038-2.037 34.902-.966 50.135 3.184.54-.963 1.124-1.92 1.74-2.857-40.717-11.434-92.536-.924-138.803 28.192z" fill="#92D3EA"/><path d="M276.032 378.04c.377.834.733 1.682 1.063 2.537 13.86-13.91 23.097-33.794 26.824-57.736-.94.57-1.88 1.12-2.82 1.66-3.73 21.98-12.39 40.47-25.07 53.55zM6.156 174.125c0-2.17.065-4.423.196-6.7.102-1.755.242-3.518.42-5.244-.328-2.85-.596-5.69-.8-8.43-.373-5.01-.562-9.94-.562-14.65 0-42.48 14.483-75.04 40.782-91.69 13.558-8.58 29.524-12.55 47.454-11.8 1.316.06 2.725.15 4.288.28 1.1-.75 2.2-1.5 3.302-2.23-21.254-2.33-40.652 1.64-56.4 11.61-27.06 17.13-41.96 50.46-41.96 93.84 0 10.17.846 20.86 2.518 31.78.243 1.6.5 3.18.773 4.76-.008-.49-.01-.99-.01-1.49zm45.59 109.057c-3.464-5.473-6.844-11.17-10.045-16.938-3.48-4.296-6.73-8.696-9.73-13.178 5.25 10.676 11.15 21.207 17.65 31.47l.07.1c1.51.87 3.05 1.703 4.62 2.495-.87-1.32-1.71-2.64-2.54-3.94zm50.706 61.836c-14.034-13.178-27.137-28.14-38.953-44.482-1.42-.484-2.82-1-4.21-1.542 16.98 24.002 36.95 45.436 58.07 62.304 21.31 17.02 43.9 29.516 65.54 36.267.01-.867.04-1.738.1-2.604-7.76-2.46-15.71-5.69-23.67-9.62-19.54-9.65-38.68-23.22-56.89-40.32zM149.34 51.12c3.374 1.67 6.805 3.496 10.21 5.43 15.998 9.087 31.706 20.827 46.688 34.894 18.916 17.766 35.975 38.57 50.704 61.84 9.315 14.712 17.422 30.004 24.092 45.45.752 1.746 1.417 3.32 2.032 4.82 3.23 7.842 6.138 15.84 8.64 23.775 7.678 24.35 11.57 47.91 11.57 70.05 0 4.86-.193 9.66-.575 14.31.9-.59 1.79-1.19 2.67-1.79.3-4.16.45-8.37.45-12.54 0-30.96-7.67-65.19-22.18-98.98-.69-1.62-1.39-3.22-2.09-4.76-6.37-14.2-13.93-28.23-22.46-41.71-24.03-37.96-54.17-69.36-87.16-90.81-3.4-2.21-6.84-4.32-10.23-6.27-16.03-9.23-32-15.63-47.47-19.04-1.04.63-2.08 1.28-3.11 1.92 12.23 2.43 24.92 6.85 37.79 13.16l.45.21z" fill="#4E4E6A"/><path fill="#1088C4" d="M204.718 229.452c-10.403 4.945-12.092-2.418-10.584-11.244 1.655-9.7 5.8-18.572 6.183-28.54.277-7.12-1.4-16.145-8.42-19.902-7.983-4.29-18.3-2.604-25.63-8.293-10.212-7.93-13.606-26.742-8.38-37.968 8.69-18.65 35.23-15.897 51.437-8.91-16.45-22.756-42.344-38.18-71.907-40.457-1.75 5.57-7.685 11.264-12.11 12.064-7.03 1.27-4.685-6.67-4.328-11.956-7.01.625-13.81 1.985-20.31 4.01-4.41 2.437-9.98 5.482-10.99 6.567-6.42 6.92 4.49 4.934 8.3 2.846 3.18-1.75 9.02-6.17 12.46-2.38 2.97 3.26-.77 9.51-3.53 11.72-5.44 4.35-13.88 1.81-19.87 5.13-5.02 2.77-9.1 7.02-12.14 11.86-2.64 4.2-3.67 10.39-7.39 13.76-4.44 4.02-5.68-1.44-9.6-3.27-5.67-2.66-13.27 12.79-9.64 14.5 3.42 1.62 4.67-4.85 7.01-3.06 2.34 1.8-4.13 7.55-.36 9.53 3.46 1.81 3.36 7.87-.19 9.44-5.61 2.48-9.49-6.65-10.76-10.48-.75-2.28-1.23-4.46-1.43-6-.528-4.16-.26-8.31.55-12.38-7.35 13.83-11.527 29.61-11.527 46.38 0 54.46 43.97 98.61 98.202 98.61 39.1 0 72.86-22.95 88.66-56.17-4.496 6.52-9.51 12.55-13.75 14.56zm-86.12-22.296c-6.72 13.138-27.462 19.413-23.407 37.165.63 2.75 4.97 12.58 1.67 14.76-.73.49-1.84.6-3.44.17-4.5-1.21-8.68-8.23-11.06-11.95-6.55-10.21-4.95-22.99-10.63-33.49-5.34-9.87-14.8-18.18-15.68-29.98-.35-4.74 1.46-9.28 1.43-13.99-.01-3.25-2.7-6.85-1.71-10.09 1.29-4.2 6.81-3.87 10.4-4.12 12.2-.87 21.65 7.66 30.97 14.21 6.74 4.73 15.66 6.09 21.98 11.38 8.45 7.07 3.65 17.86-.49 25.96z"/><path fill="none" stroke="#1087C4" stroke-width="2" stroke-linecap="round" stroke-miterlimit="10" d="M272.02 57.49c2.856 4.518 7.882 7.525 13.62 7.525 5.74 0 10.765-3.007 13.623-7.524"/><path fill="none" stroke="#1087C4" stroke-width="2" stroke-miterlimit="10" d="M267.017 25.37c-6.314 4.918-10.38 12.832-10.38 21.143h14.68c0-3.562 1.552-6.753 4.005-8.986l-8.305-12.158zm18.44-6.497c-5.002 0-9.686 1.372-13.697 3.754l8.306 12.195c1.627-.805 3.455-1.27 5.393-1.27 1.93 0 3.76.465 5.39 1.27l8.3-12.195c-4.02-2.382-8.7-3.754-13.71-3.754z"/><path fill="#92D3EA" d="M303.923 25.667l-8.134 11.91c.26.244.52.52.76.79l3.06 6.62c.06.48.1.338.1 1.525h14.38c0-8.31-3.99-16.026-10.17-20.845z"/><path fill="none" stroke="#1087C4" stroke-width="2" stroke-miterlimit="10" d="M299.613 44.988c.063.478.1.337.1 1.524h14.38c0-8.31-3.984-16.026-10.17-20.845l-8.133 11.91c.267.244.52.52.762.79"/><path fill="#92D3EA" stroke="#1087C4" stroke-width="2" stroke-miterlimit="10" d="M302.542 39.197l-13.9 4.07c-1.455-.894-3.315-1.06-4.97-.267-2.59 1.243-3.683 4.35-2.442 6.94 1.243 2.59 4.35 3.683 6.94 2.44 1.656-.794 2.69-2.35 2.903-4.043l11.875-8.293-.406-.847z"/><path d="M262.834 18.27c-8.664 6.75-14.244 17.276-14.244 29.112m55.696-31.742c-5.507-3.27-11.932-5.153-18.8-5.153s-13.294 1.883-18.802 5.152m55.433 31.62c0-11.59-5.465-21.9-13.953-28.52" fill="none" stroke="#1087C4" stroke-width="2" stroke-linecap="round" stroke-miterlimit="10"/><path fill="none" stroke="#1088C4" stroke-width="2" stroke-linecap="round" stroke-miterlimit="10" d="M371.206 265.518c-4.612 2.422-9.862 3.792-15.433 3.792-15.916 0-29.22-11.186-32.48-26.125m43.164-38.602c13.117 4.45 22.557 16.866 22.557 31.486 0 5.09-1.147 9.92-3.2 14.24"/><path fill="none" stroke="#1088C4" stroke-width="2" stroke-miterlimit="10" d="M363.53 237.758l27.13 27.128c.777.778.777 2.05 0 2.828l-1.37 1.37c-.778.777-2.052.777-2.83 0l-27.125-27.127"/><path fill="#92D3EA" d="M388.14 260.688c.776.778.776 2.05 0 2.83l-3.05 3.047c-.776.778-2.05.778-2.827 0l-18.996-18.998c-.777-.778-.777-2.05 0-2.828l3.05-3.05c.776-.78 2.05-.78 2.827 0l18.995 18.99z"/><path fill="none" stroke="#1087C4" stroke-width="2" stroke-miterlimit="10" d="M388.14 260.688c.776.778.776 2.05 0 2.83l-3.05 3.047c-.776.778-2.05.778-2.827 0l-18.996-18.998c-.777-.778-.777-2.05 0-2.828l3.05-3.05c.776-.78 2.05-.78 2.827 0l18.995 18.99z"/><path fill="none" stroke="#1088C4" stroke-width="2" stroke-miterlimit="10" d="M365.21 249.51l5.877-5.875m8.393 20.145l5.877-5.875"/><circle fill="#FFF" stroke="#1088C4" stroke-width="2" stroke-linejoin="round" stroke-miterlimit="10" cx="345.081" cy="224.197" r="22.555"/><circle fill="#FFF" stroke="#1088C4" stroke-width="2" stroke-miterlimit="10" cx="345.072" cy="224.199" r="17.814"/><path fill="none" stroke="#1088C4" stroke-width="2" stroke-miterlimit="10" d="M332.202 221.822c1.12-6.083 6.45-10.692 12.855-10.69m13.053 15.433c-.756 4.12-3.445 7.562-7.09 9.354m-20.022-7.99c-.3-1.06-.46-2.18-.46-3.34"/><circle fill="#FFF" stroke="#1088C4" stroke-width="2" stroke-linejoin="round" stroke-miterlimit="10" cx="245.212" cy="403.234" r="21.962"/><path fill="none" stroke="#1088C4" stroke-width="2" stroke-linecap="round" stroke-miterlimit="10" d="M204.323 373.385l10.365-10.364m4.04-7.64c-.778-.77-2.05-.77-2.828 0l-3.107 3.11c-.778.78-.778 2.05 0 2.83l4.295 4.3c.778.78 2.05.78 2.828 0l3.108-3.1c.778-.78.778-2.05 0-2.83l-4.296-4.29zm-16.62 15.44c-.78-.78-2.05-.78-2.83 0l-3.11 3.11c-.776.78-.776 2.05 0 2.83l4.297 4.3c.778.78 2.05.78 2.828 0l3.108-3.11c.78-.78.78-2.05 0-2.83l-4.29-4.29zm19.955 9.27l3.56 3.57m-16.873-21.3l9.09 9.09c-.143 1.28-.683 2.5-1.64 3.46-.96.96-2.182 1.5-3.462 1.64l-9.09-9.09c.144-1.28.684-2.5 1.642-3.46.958-.96 2.18-1.5 3.46-1.64z"/><path fill="#92D3EA" d="M215.5 386.24c-.778.777-1.626.54-1.885-.53 0 0-1.925-7.94 1.767-11.632 3.692-3.692 11.63-1.767 11.63-1.767 1.07.26 1.31 1.11.53 1.89L215.5 386.24z"/><path fill="none" stroke="#1087C4" stroke-width="2" stroke-miterlimit="10" d="M215.5 386.24c-.778.777-1.626.54-1.885-.53 0 0-1.925-7.94 1.767-11.632 3.692-3.692 11.63-1.767 11.63-1.767 1.07.26 1.31 1.11.53 1.89L215.5 386.24z"/><g fill="none" stroke="#1088C4" stroke-width="2" stroke-miterlimit="10"><path d="M198.15 394.268c-.162-1.26-.247-2.543-.255-3.845m1.55 9.614c-.356-1.09-.654-2.208-.89-3.347m2.99 8.3c-.497-.936-.945-1.9-1.346-2.888"/><path stroke-linecap="round" d="M221.79 420.876c-8.093-2.026-14.954-7.173-19.22-14.094"/><path d="M260.733 376.285c.49 1.172.917 2.387 1.27 3.64m-4.06-8.857c.637.957 1.22 1.954 1.753 2.99m-5.098-7.206c.73.77 1.418 1.578 2.067 2.424"/><path stroke-linecap="round" d="M230.845 356.928c8.34-.205 16.33 2.93 22.288 8.468"/></g><path fill="none" stroke="#1088C4" stroke-width="2" stroke-linecap="round" stroke-miterlimit="10" d="M250.554 386.02h-1.188s-1.824.636-2.602 1.414l-.733.733c-.77.778-1.41 1.948-1.41 2.6 0 .654-.8 1.19-1.78 1.19s-2.53.498-3.44 1.108l-.23.155c-.91.61-1.66 1.644-1.66 2.297 0 .653.9 1.187 2 1.187h1.94c1.1 0 2.27.267 2.6.594.33.327 1.13.594 1.78.594s1.72.534 2.38 1.187c.66.65 2.09 1.18 3.19 1.18h.75c1.1 0 2.54.53 3.19 1.18s1.72.65 2.37 0c.65-.66 2.09-1.19 3.19-1.19h2.747m-12.832 6.16c-.773-.78-1.944-1.42-2.6-1.42s-1.82-.64-2.6-1.41l-.73-.73c-.773-.78-2.31-1.42-3.41-1.42h-.746c-1.1 0-2.64.63-3.418 1.41l-.733.73c-.78.78-1.08 2.25-.68 3.27l.89 2.22c.41 1.02 1.545 1.854 2.52 1.854.98 0 2.316.534 2.97 1.187s1.19 2.09 1.19 3.19v1.94c0 1.1.27 2.27.595 2.595.33.33 1.13.596 1.78.596s1.826-.63 2.604-1.41l.73-.73c.78-.777 1.41-2.214 1.41-3.194s.637-2.417 1.414-3.195l.73-.732c.78-.777.78-2.05 0-2.827l-1.92-1.92z"/></svg>